<svg viewBox="7 0 262.5 283.5" xmlns="http://www.w3.org/2000/svg" xmlns:xlink="http://www.w3.org/1999/xlink" overflow="visible" width="262.5px" height="283.5px"><defs><path d="M83,36.3476251 C83,52.6289957 105.161905,65.8276544 132.5,65.8276544 C159.838095,65.8276544 182,52.6289957 182,36.3476251 C182,34.9853134 181.844841,33.6445843 181.544472,32.3313638 C210.784239,41.4879251 232,68.792221 232,101.051724 L232,110 L32,110 L32,101.051724 C32,68.3970853 53.7386736,40.8197864 83.5337207,32.0021267 C83.1821692,33.4207025 83,34.871494 83,36.3476251 Z" id="masteravataaardefault-path-1"/></defs><g id="Master/Avataaar/Default" stroke="none" stroke-width="1" fill="none" fill-rule="evenodd"><path d="M140,36 C170.927946,36 196,61.072054 196,92 L196.000809,98.1660527 C201.675838,99.1185422 206,104.05429 206,110 L206,124 C206,130.052417 201.519235,135.058294 195.693975,135.881364 C193.627928,155.686472 181.237929,172.421678 164.001014,180.610469 L164,199 L168,199 C207.764502,199 240,231.235498 240,271 L240,280 L40,280 L40,271 C40,231.235498 72.235498,199 112,199 L116,199 L115.999984,180.610943 C98.7625487,172.422324 86.3721119,155.686854 84.3051107,135.88097 C78.480765,135.058294 74,130.052417 74,124 L74,110 C74,104.053942 78.3246685,99.1179645 84.0001873,98.1658855 L84,92 C84,61.072054 109.072054,36 140,36 Z" id="Body" fill="#915b3c"/><path d="M115.998216,180.610103 C123.272713,184.066155 131.410519,186 140,186 C148.588785,186 156.725969,184.066469 164.000016,180.610943 L164.000353,185.94579 C157.441661,190.398372 149.524652,193 141,193 C131.589035,193 122.918635,189.829263 115.998807,184.497795 Z" id="shadow" fill-opacity=".24" fill="#000"/><g id="Nose" transform="translate(112.000000, 122.000000) scale(1 1)" fill="#000"><g id="Nose/Small" stroke="none" stroke-width="1" fill="none" fill-rule="evenodd"><path d="M20,7 C20,12.5228475 24.0470996,15 28,15 C31.9529004,15 36,12.5228475 36,7 C33.8327451,7.7317728 31.1406373,8.0976592 27.9236765,8.0976592 C24.7406373,8.0976592 22.0994118,7.7317728 20,7 Z" id="Nose" fill-opacity=".16" fill="#000"/></g></g><g id="Clothing" transform="translate(8.000000, 170.000000) scale(1 1)"><g id="Clothing/Jedi robe" stroke="none" stroke-width="1" fill="none" fill-rule="evenodd"><g id="Robe" transform="translate(31.000000, 27.500000)"><path d="M77.0002,1.8388 C77.0002,1.8388 100.4152,19.9298 125.0262,1.8388 L144.7322,1.8388 L146.6392,82.8388 L53.7902,82.8388 L56.4622,1.8388 L77.0002,1.8388 Z" id="Fill-1" fill="#e65ed4"/><path d="M144.732,1.8388 L145.05,15.3598 L82.694,82.8388 L59.513,82.8388 L134.365,1.8388 L144.732,1.8388 Z M145.3534,28.2147 L145.9284,52.6767 L118.0564,82.8387 L94.8764,82.8387 L145.3534,28.2147 Z M55.4976,31.0798 L83.4626,56.9218 L71.9076,69.4258 L54.7556,53.5748 L55.4976,31.0798 Z M68.9459,1.8391 L104.2319,34.4461 L92.6779,46.9491 L56.0899,13.1381 L56.4619,1.8391 L68.9459,1.8391 Z" id="Combined-Shape" fill-opacity=".3" fill="#FFF"/><path d="M0.0095,72.6474 L0.0005,73.8384 L0.0005,82.8384 L68.7465,82.8384 L68.7465,0.0004 C17.4125,0.0004 0.4205,47.3044 0.0095,72.6474" id="Fill-14" fill="#282828"/><path d="M61.0934,0.538 L61.0934,82.839 L68.7464,82.839 L68.7464,0 C66.0854,0 63.5354,0.185 61.0934,0.538" id="Fill-17" fill="#070707"/><path d="M202.0104,72.6474 L202.0204,73.8384 L202.0204,82.8384 L133.2744,82.8374 L133.2744,0.0004 C184.6074,0.0004 201.5994,47.3044 202.0104,72.6474" id="Fill-20" fill="#282828"/><path d="M140.8268,0.538 L140.8268,82.838 L133.2738,82.838 L133.2738,0 C135.8998,0 138.4168,0.185 140.8268,0.538" id="Fill-23" fill="#070707"/></g></g></g><g id="Mouth" transform="translate(86.000000, 134.000000) scale(1 1)" fill="#000"><g id="Mouth/Smile" stroke="none" stroke-width="1" fill="none" fill-rule="evenodd"><path d="M35.117844,15.1280772 C36.1757121,24.6198025 44.2259873,32 54,32 C63.8042055,32 71.8740075,24.574136 72.8917593,15.0400546 C72.9736685,14.272746 72.1167429,13 71.042767,13 C56.1487536,13 44.7379213,13 37.0868244,13 C36.0066168,13 35.0120058,14.1784435 35.117844,15.1280772 Z" id="Mouth" fill-opacity=".7" fill="#000"/><path d="M59,24 C61.9944261,24 64.7093962,25.1964934 66.6929035,27.1374734 C63.3281849,30.1611116 58.8788402,32 54,32 C49.1207895,32 44.6711395,30.1608324 41.3064872,27.1379343 C43.2906038,25.1964934 46.0055739,24 49,24 C50.8007033,24 52.5003486,24.4326806 54.0006412,25.199747 C55.5004036,24.4324891 57.1996952,24 59,24 Z" id="Path" fill-opacity=".7" fill="#FF4F6D"/><path d="M70,13 C70,15.7614237 67.7614237,18 65,18 L44,18 C41.2385763,18 39,15.7614237 39,13 L70,13 Z" id="Path" fill="#FFF"/><g id="Tongue" transform="translate(38.000000, 24.000000)"/></g></g><g id="Eyes" transform="translate(84.000000, 90.000000) scale(1 1)" fill="#000"><defs><path d="M14,14.0481187 C23.6099827,14.0481187 28,18.4994466 28,11.5617716 C28,4.62409673 21.7319865,0 14,0 C6.2680135,0 0,4.62409673 0,11.5617716 C0,18.4994466 4.39001726,14.0481187 14,14.0481187 Z" id="eyessquint-path-1"/><path d="M14,14.0481187 C23.6099827,14.0481187 28,18.4994466 28,11.5617716 C28,4.62409673 21.7319865,0 14,0 C6.2680135,0 0,4.62409673 0,11.5617716 C0,18.4994466 4.39001726,14.0481187 14,14.0481187 Z" id="eyessquint-path-3"/></defs><g id="Eyes/Squint" stroke="none" stroke-width="1" fill="none" fill-rule="evenodd"><g id="Eye" transform="translate(16.000000, 13.000000)"><mask id="eyessquint-mask-2" fill="#ffffff"><use xlink:href="#eyessquint-path-1" fill="#ffffff"/></mask><use id="The-white-stuff" fill="#FFF" xlink:href="#eyessquint-path-1"/><circle fill-opacity=".7" fill="#000" mask="url(#eyessquint-mask-2)" cx="14" cy="10" r="6"/></g><g id="Eye" transform="translate(68.000000, 13.000000)"><mask id="eyessquint-mask-4" fill="#ffffff"><use xlink:href="#eyessquint-path-3" fill="#ffffff"/></mask><use id="Eyeball-Mask" fill="#FFF" xlink:href="#eyessquint-path-3"/><circle fill-opacity=".7" fill="#000" mask="url(#eyessquint-mask-4)" cx="14" cy="10" r="6"/></g></g></g><g id="Eyebrow/Outline" transform="translate(84.000000, 82.000000) scale(1 1)" fill="#000"><g id="Eyebrow/Outline/Default" stroke="none" stroke-width="1" fill="none" fill-rule="evenodd"><g id="I-Browse" transform="translate(12.000000, 6.000000)" fill="#000" fill-opacity=".6" fill-rule="nonzero"><path d="M3.63024536,11.1585767 C7.54515501,5.64986673 18.2779197,2.56083721 27.5230268,4.83118046 C28.5957248,5.0946055 29.6788665,4.43856013 29.9422916,3.36586212 C30.2057166,2.2931641 29.5496712,1.21002236 28.4769732,0.94659732 C17.7403633,-1.69001789 5.31209962,1.88699832 0.369754639,8.84142326 C-0.270109626,9.74178291 -0.0589363917,10.9903811 0.84142326,11.6302454 C1.74178291,12.2701096 2.9903811,12.0589364 3.63024536,11.1585767 Z" id="Eyebrow"/><path d="M61.6302454,11.1585767 C65.545155,5.64986673 76.2779197,2.56083721 85.5230268,4.83118046 C86.5957248,5.0946055 87.6788665,4.43856013 87.9422916,3.36586212 C88.2057166,2.2931641 87.5496712,1.21002236 86.4769732,0.94659732 C75.7403633,-1.69001789 63.3120996,1.88699832 58.3697546,8.84142326 C57.7298904,9.74178291 57.9410636,10.9903811 58.8414233,11.6302454 C59.7417829,12.2701096 60.9903811,12.0589364 61.6302454,11.1585767 Z" id="Eyebrow" transform="translate(73.000154, 6.039198) scale(-1, 1) translate(-73.000154, -6.039198)"/></g></g></g><g id="Facial Hair" transform="translate(57.000000, 72.000000) scale(1 1)" fill="#000"><g id="Facial Hair/Blank" stroke="none" stroke-width="1" fill="none" fill-rule="evenodd" fill-opacity="0"/></g><g id="Hairstyle" transform="translate(7.000000, 0.000000) scale(1 1)"><defs><path d="M133,0 C143.344756,0 153.252755,1.86998025 162.404408,5.29035187 C163.741253,5.0996534 165.108989,5 166.5,5 C174.218206,5 181.219828,8.06805859 186.351816,13.0511239 C207.443153,13.9367643 225.462801,26.7017536 233.895194,44.8285003 C243.425942,49.4394673 250,59.2020069 250,70.5 C250,71.2996388 249.967068,72.091586 249.902486,72.8745592 C256.882084,82.4497701 261,94.2439896 261,107 C261,114.157324 259.70357,121.011851 257.332726,127.341563 C257.769628,129.323917 258,131.385056 258,133.5 C258,143.289141 253.064626,151.925564 245.546398,157.056747 C236.835658,174.792827 218.593398,187 197.5,187 C195.536583,187 193.597869,186.894234 191.689244,186.688088 C185.384606,191.881168 177.306524,195 168.5,195 C164.482007,195 160.61565,194.350766 157.000112,193.151479 L157.001014,180.610469 C174.531251,172.282329 187.048207,155.114429 188.791415,134.867236 C194.568906,134.002616 199,129.018777 199,123 L199,123 L199,110 C199,104.05429 194.675838,99.1185422 189.000809,98.1660527 L189,92 C189,86.5620793 188.224908,81.3051912 186.779174,76.3337864 L188.153157,89.1947292 L176.812614,65.1945789 L131.676809,45.6707349 L101.563146,56.2283606 L80.0648273,76.419385 L80.0185329,73.8156164 C78.0620194,79.5173461 77,85.6346491 77,92 L77,92 L77.0001873,98.1658855 C71.3246685,99.1179645 67,104.053942 67,110 L67,110 L67,123 C67,129.018777 71.4310943,134.002616 77.2090181,134.867253 C78.9518263,155.114813 91.4692242,172.28298 108.999984,180.610943 L109.000761,191.554621 C104.295864,193.764779 99.0421828,195 93.5,195 C84.6934761,195 76.6153944,191.881168 70.3100357,186.687785 C68.4021312,186.894234 66.4634171,187 64.5,187 C43.4066019,187 25.1643418,174.792827 16.4523753,157.057636 C8.93537426,151.925564 4,143.289141 4,133.5 C4,131.385056 4.23037156,129.323917 4.6673902,127.34031 C2.29643027,121.011851 1,114.157324 1,107 C1,94.2439896 5.11791636,82.4497701 12.0969146,72.8741759 C12.032932,72.091586 12,71.2996388 12,70.5 C12,59.2020069 18.5740581,49.4394673 28.1055477,44.8290078 C36.537199,26.7017536 54.5568467,13.9367643 75.6478934,13.0493874 C80.7801716,8.06805859 87.7817941,5 95.5,5 C97.8281062,5 100.091014,5.27914926 102.257077,5.80580257 C111.776818,2.05782567 122.148094,0 133,0 Z" id="hairstylefro-band-path-1"/></defs><g id="Hairstyle/Fro + Band" stroke="none" stroke-width="1" fill="none" fill-rule="evenodd"><mask id="hairstylefro-band-mask-2" fill="#ffffff"><use xlink:href="#hairstylefro-band-path-1" fill="#ffffff"/></mask><use id="Hair" fill="#2c1b18" xlink:href="#hairstylefro-band-path-1"/><path d="M132.5,39 C163.704088,39 189,62.3493236 189,91.1521739 C189,93.8108718 188.784465,96.4231027 188.368644,98.9747915 C184.279068,73.8828117 160.823363,54.6456522 132.5,54.6456522 C104.17626,54.6456522 80.7203083,73.8833236 76.6313559,98.9752085 C76.2155912,96.4237863 76,93.8112197 76,91.1521739 C76,62.3493236 101.295912,39 132.5,39 Z" id="Band" fill="#92D9FF"/></g></g><g id="Accesories" transform="translate(70.000000, 85.000000) scale(1 1)"><g id="Accesories/Prescription 01" stroke="none" stroke-width="1" fill="none" fill-rule="evenodd"><g id="Glasses" transform="translate(8.000000, 8.000000)"><path d="M80.420644,2.03156667 L103.711555,2.4879 L104.418885,2.51739042 C108.716907,2.73064946 111.842183,3.56082362 114.25907,7.0052776 L115.270648,7.06122262 C117.98538,7.22356852 120.815928,7.51990231 123.241565,8.63936667 C126.626236,10.2013667 127.149293,13.7387 122.882414,14.2260333 C120.960673,14.4457 119.036739,14.0827 117.144457,13.7450333 L116.805075,13.6912775 C117.908933,23.1522104 110.598088,34.5597165 102.577413,38.0372333 C91.6003746,42.7965667 79.3375086,37.5292333 73.5337832,28.0035667 C70.9077874,23.6933472 69.3913647,17.4882292 69.0679314,12.1428905 C68.2485064,11.7454964 67.4674464,11.2201465 66.7189648,10.8553 C64.7120473,9.8773 61.3809643,9.75663333 59.2126933,10.8553 C58.4674989,11.2329059 57.6844252,11.7618811 56.860867,12.1592462 C56.5358863,17.500774 55.019749,23.6993553 52.3955746,28.0058333 C46.5921826,37.5318333 34.3293166,42.7991667 23.352278,38.0395 C15.3308758,34.5619527 8.01918948,23.1527353 9.12481053,13.6913039 L8.78716336,13.7450333 L7.91167874,13.9004644 C6.30295502,14.1806014 4.67529677,14.4119051 3.04920921,14.2260333 C-1.2176675,13.7387 -0.69461078,10.2013667 2.69005822,8.63936667 C5.41866332,7.38007813 8.65964371,7.16238412 11.6724863,7.00636982 C14.088769,3.56285878 17.2136434,2.73316872 21.5106444,2.51998225 L22.2178029,2.4905 L46.367281,2.01387049 C51.1910659,1.92297948 55.3004405,2.2797475 56.5415862,6.63986622 C58.6301126,5.82581137 61.0470363,5.38463333 62.8914864,5.38463333 C64.750063,5.38463333 67.2403142,5.83268843 69.3827667,6.65903161 C70.6884926,2.02106814 75.2241204,1.89209727 80.420644,2.03156667 Z M46.6792964,9.28413029 L45.1743719,9.26279162 C40.2545196,9.2171575 20.0180517,9.15303061 17.6158944,11.1491667 C15.2262624,13.1345 16.5340925,19.0731667 17.1565036,21.5561667 C18.2203032,25.7998333 20.6396056,30.0601667 24.1723805,32.7525 C27.160879,35.03 30.9870799,35.1875781 34.598636,34.8394006 L34.8137377,34.8154434 C34.5755438,34.8270989 36.279595,34.5883296 36.6288896,34.5222918 L36.6612747,34.5158333 C37.7297416,34.2861667 38.7985419,33.9835 39.8106684,33.5641667 C41.7165732,32.7748333 43.5084639,31.6188333 44.9776475,30.1685 C47.7666627,27.4145 48.9648125,23.7228333 49.6852359,19.9548333 C50.1572949,17.4871667 50.5553446,14.6705 50.1459601,12.1651667 C49.7671628,9.84641667 48.7581109,9.35491276 46.6792964,9.28413029 L46.6792964,9.28413029 Z M82.2432286,9.24980184 L79.6805515,9.27256667 C77.3089217,9.29523333 76.1877816,9.68923333 75.7837311,12.1625667 C75.3743466,14.6679 75.7723963,17.4845667 76.244122,19.9522333 C76.9648787,23.7202333 78.1630285,27.4119 80.9520437,30.1659 C82.4212273,31.6162333 84.213118,32.7722333 86.1190228,33.5619 C86.9624616,33.9110667 87.8452571,34.1794463 88.7344192,34.392116 L89.2684165,34.5132333 C89.5131654,34.5657289 91.2030063,34.8028032 91.1366495,34.8130415 L90.9855976,34.8019336 C94.6972751,35.192883 98.6733348,35.1001622 101.757311,32.7499 C105.290086,30.0575667 107.709388,25.7975667 108.773188,21.5539 L108.961141,20.7771479 C109.606864,17.9999642 110.480835,12.9475202 108.313797,11.1465667 C106.107164,9.3129068 88.8513244,9.2177679 82.2432286,9.24980184 L82.2432286,9.24980184 Z" id="Shape" fill-opacity=".16" fill="#000"/><path d="M80.420644,0.0315666667 L103.711555,0.4879 L104.418885,0.517390422 C108.716907,0.73064946 111.842183,1.56082362 114.25907,5.0052776 L115.270648,5.06122262 C117.98538,5.22356852 120.815928,5.51990231 123.241565,6.63936667 C126.626236,8.20136667 127.149293,11.7387 122.882414,12.2260333 C120.960673,12.4457 119.036739,12.0827 117.144457,11.7450333 L116.805075,11.6912775 C117.908933,21.1522104 110.598088,32.5597165 102.577413,36.0372333 C91.6003746,40.7965667 79.3375086,35.5292333 73.5337832,26.0035667 C70.9077874,21.6933472 69.3913647,15.4882292 69.0679314,10.1428905 C68.2485064,9.74549637 67.4674464,9.22014648 66.7189648,8.8553 C64.7120473,7.8773 61.3809643,7.75663333 59.2126933,8.8553 C58.4674989,9.2329059 57.6844252,9.7618811 56.860867,10.1592462 C56.5358863,15.500774 55.019749,21.6993553 52.3955746,26.0058333 C46.5921826,35.5318333 34.3293166,40.7991667 23.352278,36.0395 C15.3308758,32.5619527 8.01918948,21.1527353 9.12481053,11.6913039 L8.78716336,11.7450333 L7.91167874,11.9004644 C6.30295502,12.1806014 4.67529677,12.4119051 3.04920921,12.2260333 C-1.2176675,11.7387 -0.69461078,8.20136667 2.69005822,6.63936667 C5.41866332,5.38007813 8.65964371,5.16238412 11.6724863,5.00636982 C14.088769,1.56285878 17.2136434,0.733168723 21.5106444,0.519982254 L22.2178029,0.4905 L46.367281,0.0138704941 C51.1910659,-0.0770205207 55.3004405,0.279747502 56.5415862,4.63986622 C58.6301126,3.82581137 61.0470363,3.38463333 62.8914864,3.38463333 C64.750063,3.38463333 67.2403142,3.83268843 69.3827667,4.65903161 C70.6884926,0.0210681394 75.2241204,-0.10790273 80.420644,0.0315666667 Z M46.6792964,7.28413029 L45.1743719,7.26279162 C40.2545196,7.2171575 20.0180517,7.15303061 17.6158944,9.14916667 C15.2262624,11.1345 16.5340925,17.0731667 17.1565036,19.5561667 C18.2203032,23.7998333 20.6396056,28.0601667 24.1723805,30.7525 C27.160879,33.03 30.9870799,33.1875781 34.598636,32.8394006 L34.8137377,32.8154434 C34.5755438,32.8270989 36.279595,32.5883296 36.6288896,32.5222918 L36.6612747,32.5158333 C37.7297416,32.2861667 38.7985419,31.9835 39.8106684,31.5641667 C41.7165732,30.7748333 43.5084639,29.6188333 44.9776475,28.1685 C47.7666627,25.4145 48.9648125,21.7228333 49.6852359,17.9548333 C50.1572949,15.4871667 50.5553446,12.6705 50.1459601,10.1651667 C49.7671628,7.84641667 48.7581109,7.35491276 46.6792964,7.28413029 L46.6792964,7.28413029 Z M82.2432286,7.24980184 L79.6805515,7.27256667 C77.3089217,7.29523333 76.1877816,7.68923333 75.7837311,10.1625667 C75.3743466,12.6679 75.7723964,15.4845667 76.244122,17.9522333 C76.9648787,21.7202333 78.1630285,25.4119 80.9520437,28.1659 C82.4212274,29.6162333 84.213118,30.7722333 86.1190229,31.5619 C86.9624616,31.9110667 87.8452571,32.1794463 88.7344192,32.392116 L89.2684165,32.5132333 C89.5131654,32.5657289 91.2030063,32.8028032 91.1366495,32.8130415 L90.9855976,32.8019336 C94.6972751,33.192883 98.6733348,33.1001622 101.757311,30.7499 C105.290086,28.0575667 107.709388,23.7975667 108.773188,19.5539 L108.961141,18.7771479 C109.606864,15.9999642 110.480835,10.9475202 108.313797,9.14656667 C106.107164,7.3129068 88.8513244,7.2177679 82.2432286,7.24980184 L82.2432286,7.24980184 Z" id="Shape-Copy" fill="#D6EAF2"/></g></g></g></g></svg>