<svg width="22" height="33" viewBox="0 0 22 33" fill="none" xmlns="http://www.w3.org/2000/svg">
<g clip-path="url(#clip0_419_107)">
<path d="M5.66634 32.6667C8.61034 32.6667 10.9997 30.2773 10.9997 27.3333V22H5.66634C2.72234 22 0.333008 24.3893 0.333008 27.3333C0.333008 30.2773 2.72234 32.6667 5.66634 32.6667Z" fill="#0ACF83"/>
<path d="M0.333008 16.6668C0.333008 13.7228 2.72234 11.3335 5.66634 11.3335H10.9997V22.0002H5.66634C2.72234 22.0002 0.333008 19.6108 0.333008 16.6668Z" fill="#A259FF"/>
<path d="M0.333008 6.00008C0.333008 3.05608 2.72234 0.666748 5.66634 0.666748H10.9997V11.3334H5.66634C2.72234 11.3334 0.333008 8.94408 0.333008 6.00008Z" fill="#F24E1E"/>
<path d="M11 0.666748H16.3333C19.2773 0.666748 21.6667 3.05608 21.6667 6.00008C21.6667 8.94408 19.2773 11.3334 16.3333 11.3334H11V0.666748Z" fill="#FF7262"/>
<path d="M21.6667 16.6668C21.6667 19.6108 19.2773 22.0002 16.3333 22.0002C13.3893 22.0002 11 19.6108 11 16.6668C11 13.7228 13.3893 11.3335 16.3333 11.3335C19.2773 11.3335 21.6667 13.7228 21.6667 16.6668Z" fill="#1ABCFE"/>
</g>
<defs>
<clipPath id="clip0_419_107">
<rect width="21.3333" height="32" fill="white" transform="translate(0.333008 0.666748)"/>
</clipPath>
</defs>
</svg>
