<svg width="1244" height="474" viewBox="0 0 1244 474" fill="none" xmlns="http://www.w3.org/2000/svg">
<path d="M0.585786 406.586C-0.195262 407.367 -0.195262 408.633 0.585787 409.414L13.3137 422.142C14.0948 422.923 15.3611 422.923 16.1421 422.142C16.9232 421.361 16.9232 420.095 16.1421 419.314L4.82843 408L16.1421 396.686C16.9232 395.905 16.9232 394.639 16.1421 393.858C15.3611 393.077 14.0948 393.077 13.3137 393.858L0.585786 406.586ZM1243.41 409.414C1244.2 408.633 1244.2 407.367 1243.41 406.586L1230.69 393.858C1229.91 393.077 1228.64 393.077 1227.86 393.858C1227.08 394.639 1227.08 395.905 1227.86 396.686L1239.17 408L1227.86 419.314C1227.08 420.095 1227.08 421.361 1227.86 422.142C1228.64 422.923 1229.91 422.923 1230.69 422.142L1243.41 409.414ZM2 410L1242 410L1242 406L2 406L2 410Z" fill="black"/>
<path d="M501.335 448.224C501.335 447.531 501.463 446.853 501.719 446.192C501.986 445.52 502.37 444.912 502.871 444.368C503.373 443.824 503.981 443.392 504.695 443.072C505.421 442.741 506.237 442.576 507.143 442.576C508.231 442.576 509.181 442.805 509.991 443.264C510.802 443.712 511.405 444.309 511.799 445.056L509.415 446.752C509.277 446.379 509.074 446.091 508.807 445.888C508.551 445.685 508.269 445.547 507.959 445.472C507.661 445.387 507.367 445.344 507.079 445.344C506.631 445.344 506.242 445.435 505.911 445.616C505.591 445.787 505.325 446.016 505.111 446.304C504.909 446.592 504.754 446.912 504.647 447.264C504.551 447.616 504.503 447.968 504.503 448.32C504.503 448.715 504.562 449.093 504.679 449.456C504.797 449.819 504.967 450.144 505.191 450.432C505.415 450.709 505.687 450.928 506.007 451.088C506.338 451.248 506.706 451.328 507.111 451.328C507.399 451.328 507.693 451.285 507.991 451.2C508.29 451.104 508.562 450.955 508.807 450.752C509.053 450.549 509.239 450.277 509.367 449.936L511.911 451.456C511.687 452.011 511.314 452.485 510.791 452.88C510.269 453.275 509.677 453.579 509.015 453.792C508.354 453.995 507.698 454.096 507.047 454.096C506.205 454.096 505.431 453.931 504.727 453.6C504.034 453.259 503.431 452.811 502.919 452.256C502.418 451.691 502.029 451.061 501.751 450.368C501.474 449.664 501.335 448.949 501.335 448.224ZM520.53 454.096C519.666 454.096 518.882 453.936 518.178 453.616C517.474 453.285 516.866 452.848 516.354 452.304C515.853 451.749 515.463 451.131 515.186 450.448C514.919 449.755 514.786 449.04 514.786 448.304C514.786 447.547 514.93 446.827 515.218 446.144C515.506 445.461 515.906 444.853 516.418 444.32C516.941 443.776 517.554 443.349 518.258 443.04C518.973 442.731 519.751 442.576 520.594 442.576C521.458 442.576 522.242 442.741 522.946 443.072C523.65 443.392 524.253 443.829 524.754 444.384C525.255 444.939 525.639 445.563 525.906 446.256C526.183 446.939 526.322 447.643 526.322 448.368C526.322 449.115 526.178 449.829 525.89 450.512C525.613 451.195 525.213 451.808 524.69 452.352C524.178 452.885 523.57 453.312 522.866 453.632C522.162 453.941 521.383 454.096 520.53 454.096ZM517.954 448.336C517.954 448.72 518.007 449.093 518.114 449.456C518.221 449.808 518.381 450.128 518.594 450.416C518.807 450.693 519.074 450.917 519.394 451.088C519.725 451.248 520.114 451.328 520.562 451.328C521.01 451.328 521.399 451.243 521.73 451.072C522.061 450.901 522.327 450.672 522.53 450.384C522.743 450.085 522.898 449.76 522.994 449.408C523.101 449.045 523.154 448.677 523.154 448.304C523.154 447.92 523.101 447.552 522.994 447.2C522.887 446.848 522.727 446.533 522.514 446.256C522.301 445.968 522.029 445.744 521.698 445.584C521.367 445.424 520.983 445.344 520.546 445.344C520.098 445.344 519.709 445.429 519.378 445.6C519.058 445.771 518.791 446 518.578 446.288C518.365 446.565 518.205 446.885 518.098 447.248C518.002 447.6 517.954 447.963 517.954 448.336ZM533.324 448.416V454H530.204V442.64H532.636L537.196 448.416V442.64H540.316V454H537.836L533.324 448.416ZM553.675 445.36H550.411V454H547.291V445.36H544.011V442.64H553.675V445.36ZM557.371 454V442.64H560.491V454H557.371ZM568.129 448.416V454H565.009V442.64H567.441L572.001 448.416V442.64H575.121V454H572.641L568.129 448.416ZM584.592 454.096C583.685 454.096 582.907 453.947 582.256 453.648C581.605 453.349 581.072 452.939 580.656 452.416C580.251 451.893 579.952 451.296 579.76 450.624C579.568 449.941 579.472 449.227 579.472 448.48V442.64H582.592V448.48C582.592 448.853 582.629 449.211 582.704 449.552C582.779 449.893 582.896 450.197 583.056 450.464C583.216 450.731 583.419 450.944 583.664 451.104C583.92 451.253 584.229 451.328 584.592 451.328C584.965 451.328 585.28 451.253 585.536 451.104C585.792 450.944 585.995 450.731 586.144 450.464C586.304 450.187 586.421 449.877 586.496 449.536C586.571 449.195 586.608 448.843 586.608 448.48V442.64H589.728V448.48C589.728 449.269 589.621 450.005 589.408 450.688C589.205 451.371 588.896 451.968 588.48 452.48C588.064 452.992 587.531 453.392 586.88 453.68C586.24 453.957 585.477 454.096 584.592 454.096ZM599.203 454.096C598.339 454.096 597.555 453.936 596.851 453.616C596.147 453.285 595.539 452.848 595.027 452.304C594.525 451.749 594.136 451.131 593.859 450.448C593.592 449.755 593.459 449.04 593.459 448.304C593.459 447.547 593.603 446.827 593.891 446.144C594.179 445.461 594.579 444.853 595.091 444.32C595.613 443.776 596.227 443.349 596.931 443.04C597.645 442.731 598.424 442.576 599.267 442.576C600.131 442.576 600.915 442.741 601.619 443.072C602.323 443.392 602.925 443.829 603.427 444.384C603.928 444.939 604.312 445.563 604.579 446.256C604.856 446.939 604.995 447.643 604.995 448.368C604.995 449.115 604.851 449.829 604.563 450.512C604.285 451.195 603.885 451.808 603.363 452.352C602.851 452.885 602.243 453.312 601.539 453.632C600.835 453.941 600.056 454.096 599.203 454.096ZM596.627 448.336C596.627 448.72 596.68 449.093 596.787 449.456C596.893 449.808 597.053 450.128 597.267 450.416C597.48 450.693 597.747 450.917 598.067 451.088C598.397 451.248 598.787 451.328 599.235 451.328C599.683 451.328 600.072 451.243 600.403 451.072C600.733 450.901 601 450.672 601.203 450.384C601.416 450.085 601.571 449.76 601.667 449.408C601.773 449.045 601.827 448.677 601.827 448.304C601.827 447.92 601.773 447.552 601.667 447.2C601.56 446.848 601.4 446.533 601.187 446.256C600.973 445.968 600.701 445.744 600.371 445.584C600.04 445.424 599.656 445.344 599.219 445.344C598.771 445.344 598.381 445.429 598.051 445.6C597.731 445.771 597.464 446 597.251 446.288C597.037 446.565 596.877 446.885 596.771 447.248C596.675 447.6 596.627 447.963 596.627 448.336ZM613.837 454.096C612.93 454.096 612.152 453.947 611.501 453.648C610.85 453.349 610.317 452.939 609.901 452.416C609.496 451.893 609.197 451.296 609.005 450.624C608.813 449.941 608.717 449.227 608.717 448.48V442.64H611.837V448.48C611.837 448.853 611.874 449.211 611.949 449.552C612.024 449.893 612.141 450.197 612.301 450.464C612.461 450.731 612.664 450.944 612.909 451.104C613.165 451.253 613.474 451.328 613.837 451.328C614.21 451.328 614.525 451.253 614.781 451.104C615.037 450.944 615.24 450.731 615.389 450.464C615.549 450.187 615.666 449.877 615.741 449.536C615.816 449.195 615.853 448.843 615.853 448.48V442.64H618.973V448.48C618.973 449.269 618.866 450.005 618.653 450.688C618.45 451.371 618.141 451.968 617.725 452.48C617.309 452.992 616.776 453.392 616.125 453.68C615.485 453.957 614.722 454.096 613.837 454.096ZM630.208 446.352C630.208 446.352 630.117 446.299 629.936 446.192C629.754 446.085 629.514 445.968 629.216 445.84C628.917 445.701 628.592 445.579 628.24 445.472C627.888 445.365 627.541 445.312 627.2 445.312C626.933 445.312 626.714 445.355 626.544 445.44C626.373 445.525 626.288 445.669 626.288 445.872C626.288 446.064 626.373 446.219 626.544 446.336C626.714 446.453 626.954 446.56 627.264 446.656C627.584 446.752 627.962 446.869 628.4 447.008C629.104 447.221 629.712 447.467 630.224 447.744C630.736 448.021 631.13 448.379 631.408 448.816C631.685 449.243 631.824 449.813 631.824 450.528C631.824 451.211 631.701 451.787 631.456 452.256C631.21 452.715 630.88 453.083 630.464 453.36C630.048 453.637 629.584 453.84 629.072 453.968C628.56 454.085 628.037 454.144 627.504 454.144C626.96 454.144 626.389 454.091 625.792 453.984C625.205 453.867 624.634 453.712 624.08 453.52C623.525 453.317 623.018 453.083 622.56 452.816L623.904 450.08C623.904 450.08 624.01 450.144 624.224 450.272C624.437 450.4 624.72 450.544 625.072 450.704C625.424 450.864 625.813 451.008 626.24 451.136C626.677 451.264 627.114 451.328 627.552 451.328C627.893 451.328 628.128 451.285 628.256 451.2C628.394 451.104 628.464 450.981 628.464 450.832C628.464 450.608 628.346 450.437 628.112 450.32C627.877 450.192 627.568 450.075 627.184 449.968C626.81 449.851 626.394 449.717 625.936 449.568C625.274 449.344 624.73 449.093 624.304 448.816C623.877 448.528 623.562 448.192 623.36 447.808C623.157 447.413 623.056 446.939 623.056 446.384C623.056 445.541 623.253 444.837 623.648 444.272C624.042 443.707 624.56 443.28 625.2 442.992C625.85 442.693 626.549 442.544 627.296 442.544C627.85 442.544 628.384 442.613 628.896 442.752C629.418 442.88 629.904 443.04 630.352 443.232C630.81 443.424 631.21 443.605 631.552 443.776L630.208 446.352ZM641.916 454V442.64H647.132C647.687 442.64 648.199 442.752 648.668 442.976C649.138 443.2 649.543 443.504 649.884 443.888C650.226 444.261 650.487 444.683 650.668 445.152C650.86 445.621 650.956 446.096 650.956 446.576C650.956 447.013 650.892 447.435 650.764 447.84C650.636 448.245 650.45 448.619 650.204 448.96C649.959 449.291 649.666 449.579 649.324 449.824L651.724 454H648.3L646.3 450.512H645.036V454H641.916ZM645.036 447.792H647.004C647.132 447.792 647.255 447.744 647.372 447.648C647.49 447.552 647.586 447.413 647.66 447.232C647.746 447.051 647.788 446.832 647.788 446.576C647.788 446.309 647.74 446.091 647.644 445.92C647.559 445.739 647.447 445.6 647.308 445.504C647.18 445.408 647.052 445.36 646.924 445.36H645.036V447.792ZM663.369 451.28V454H655.273V442.64H663.225V445.36H658.393V446.96H662.521V449.488H658.393V451.28H663.369ZM674.26 446.352C674.26 446.352 674.169 446.299 673.988 446.192C673.807 446.085 673.567 445.968 673.268 445.84C672.969 445.701 672.644 445.579 672.292 445.472C671.94 445.365 671.593 445.312 671.252 445.312C670.985 445.312 670.767 445.355 670.596 445.44C670.425 445.525 670.34 445.669 670.34 445.872C670.34 446.064 670.425 446.219 670.596 446.336C670.767 446.453 671.007 446.56 671.316 446.656C671.636 446.752 672.015 446.869 672.452 447.008C673.156 447.221 673.764 447.467 674.276 447.744C674.788 448.021 675.183 448.379 675.46 448.816C675.737 449.243 675.876 449.813 675.876 450.528C675.876 451.211 675.753 451.787 675.508 452.256C675.263 452.715 674.932 453.083 674.516 453.36C674.1 453.637 673.636 453.84 673.124 453.968C672.612 454.085 672.089 454.144 671.556 454.144C671.012 454.144 670.441 454.091 669.844 453.984C669.257 453.867 668.687 453.712 668.132 453.52C667.577 453.317 667.071 453.083 666.612 452.816L667.956 450.08C667.956 450.08 668.063 450.144 668.276 450.272C668.489 450.4 668.772 450.544 669.124 450.704C669.476 450.864 669.865 451.008 670.292 451.136C670.729 451.264 671.167 451.328 671.604 451.328C671.945 451.328 672.18 451.285 672.308 451.2C672.447 451.104 672.516 450.981 672.516 450.832C672.516 450.608 672.399 450.437 672.164 450.32C671.929 450.192 671.62 450.075 671.236 449.968C670.863 449.851 670.447 449.717 669.988 449.568C669.327 449.344 668.783 449.093 668.356 448.816C667.929 448.528 667.615 448.192 667.412 447.808C667.209 447.413 667.108 446.939 667.108 446.384C667.108 445.541 667.305 444.837 667.7 444.272C668.095 443.707 668.612 443.28 669.252 442.992C669.903 442.693 670.601 442.544 671.348 442.544C671.903 442.544 672.436 442.613 672.948 442.752C673.471 442.88 673.956 443.04 674.404 443.232C674.863 443.424 675.263 443.605 675.604 443.776L674.26 446.352ZM687.911 451.28V454H679.815V442.64H687.767V445.36H682.935V446.96H687.063V449.488H682.935V451.28H687.911ZM694.546 442.64H698.034L701.65 454H698.482L697.794 451.776H694.77L694.098 454H690.914L694.546 442.64ZM697.298 449.696L696.29 445.696L695.234 449.696H697.298ZM705.154 454V442.64H710.37C710.924 442.64 711.436 442.752 711.906 442.976C712.375 443.2 712.78 443.504 713.122 443.888C713.463 444.261 713.724 444.683 713.906 445.152C714.098 445.621 714.194 446.096 714.194 446.576C714.194 447.013 714.13 447.435 714.002 447.84C713.874 448.245 713.687 448.619 713.442 448.96C713.196 449.291 712.903 449.579 712.562 449.824L714.962 454H711.538L709.538 450.512H708.274V454H705.154ZM708.274 447.792H710.242C710.37 447.792 710.492 447.744 710.61 447.648C710.727 447.552 710.823 447.413 710.898 447.232C710.983 447.051 711.026 446.832 711.026 446.576C711.026 446.309 710.978 446.091 710.882 445.92C710.796 445.739 710.684 445.6 710.546 445.504C710.418 445.408 710.29 445.36 710.162 445.36H708.274V447.792ZM717.746 448.224C717.746 447.531 717.874 446.853 718.13 446.192C718.397 445.52 718.781 444.912 719.282 444.368C719.783 443.824 720.391 443.392 721.106 443.072C721.831 442.741 722.647 442.576 723.554 442.576C724.642 442.576 725.591 442.805 726.402 443.264C727.213 443.712 727.815 444.309 728.21 445.056L725.826 446.752C725.687 446.379 725.485 446.091 725.218 445.888C724.962 445.685 724.679 445.547 724.37 445.472C724.071 445.387 723.778 445.344 723.49 445.344C723.042 445.344 722.653 445.435 722.322 445.616C722.002 445.787 721.735 446.016 721.522 446.304C721.319 446.592 721.165 446.912 721.058 447.264C720.962 447.616 720.914 447.968 720.914 448.32C720.914 448.715 720.973 449.093 721.09 449.456C721.207 449.819 721.378 450.144 721.602 450.432C721.826 450.709 722.098 450.928 722.418 451.088C722.749 451.248 723.117 451.328 723.522 451.328C723.81 451.328 724.103 451.285 724.402 451.2C724.701 451.104 724.973 450.955 725.218 450.752C725.463 450.549 725.65 450.277 725.778 449.936L728.322 451.456C728.098 452.011 727.725 452.485 727.202 452.88C726.679 453.275 726.087 453.579 725.426 453.792C724.765 453.995 724.109 454.096 723.458 454.096C722.615 454.096 721.842 453.931 721.138 453.6C720.445 453.259 719.842 452.811 719.33 452.256C718.829 451.691 718.439 451.061 718.162 450.368C717.885 449.664 717.746 448.949 717.746 448.224ZM742.041 442.64V454H738.921V449.552H735.113V454H731.993V442.64H735.113V446.832H738.921V442.64H742.041ZM481.506 463.52H479.058V470H476.718V463.52H474.258V461.48H481.506V463.52ZM487.99 470.072C487.342 470.072 486.754 469.952 486.226 469.712C485.698 469.464 485.242 469.136 484.858 468.728C484.482 468.312 484.19 467.848 483.982 467.336C483.782 466.816 483.682 466.28 483.682 465.728C483.682 465.16 483.79 464.62 484.006 464.108C484.222 463.596 484.522 463.14 484.906 462.74C485.298 462.332 485.758 462.012 486.286 461.78C486.822 461.548 487.406 461.432 488.038 461.432C488.686 461.432 489.274 461.556 489.802 461.804C490.33 462.044 490.782 462.372 491.158 462.788C491.534 463.204 491.822 463.672 492.022 464.192C492.23 464.704 492.334 465.232 492.334 465.776C492.334 466.336 492.226 466.872 492.01 467.384C491.802 467.896 491.502 468.356 491.11 468.764C490.726 469.164 490.27 469.484 489.742 469.724C489.214 469.956 488.63 470.072 487.99 470.072ZM486.058 465.752C486.058 466.04 486.098 466.32 486.178 466.592C486.258 466.856 486.378 467.096 486.538 467.312C486.698 467.52 486.898 467.688 487.138 467.816C487.386 467.936 487.678 467.996 488.014 467.996C488.35 467.996 488.642 467.932 488.89 467.804C489.138 467.676 489.338 467.504 489.49 467.288C489.65 467.064 489.766 466.82 489.838 466.556C489.918 466.284 489.958 466.008 489.958 465.728C489.958 465.44 489.918 465.164 489.838 464.9C489.758 464.636 489.638 464.4 489.478 464.192C489.318 463.976 489.114 463.808 488.866 463.688C488.618 463.568 488.33 463.508 488.002 463.508C487.666 463.508 487.374 463.572 487.126 463.7C486.886 463.828 486.686 464 486.526 464.216C486.366 464.424 486.246 464.664 486.166 464.936C486.094 465.2 486.058 465.472 486.058 465.752ZM503.581 470.072C502.901 470.072 502.317 469.96 501.829 469.736C501.341 469.512 500.941 469.204 500.629 468.812C500.325 468.42 500.101 467.972 499.957 467.468C499.813 466.956 499.741 466.42 499.741 465.86V461.48H502.081V465.86C502.081 466.14 502.109 466.408 502.165 466.664C502.221 466.92 502.309 467.148 502.429 467.348C502.549 467.548 502.701 467.708 502.885 467.828C503.077 467.94 503.309 467.996 503.581 467.996C503.861 467.996 504.097 467.94 504.289 467.828C504.481 467.708 504.633 467.548 504.745 467.348C504.865 467.14 504.953 466.908 505.009 466.652C505.065 466.396 505.093 466.132 505.093 465.86V461.48H507.433V465.86C507.433 466.452 507.353 467.004 507.193 467.516C507.041 468.028 506.809 468.476 506.497 468.86C506.185 469.244 505.785 469.544 505.297 469.76C504.817 469.968 504.245 470.072 503.581 470.072ZM513.039 465.812V470H510.699V461.48H512.523L515.943 465.812V461.48H518.283V470H516.423L513.039 465.812ZM521.666 470V461.48H524.942C525.886 461.48 526.674 461.672 527.306 462.056C527.946 462.432 528.426 462.944 528.746 463.592C529.074 464.232 529.238 464.944 529.238 465.728C529.238 466.592 529.058 467.344 528.698 467.984C528.346 468.624 527.846 469.12 527.198 469.472C526.558 469.824 525.806 470 524.942 470H521.666ZM526.862 465.728C526.862 465.288 526.786 464.904 526.634 464.576C526.482 464.24 526.262 463.98 525.974 463.796C525.686 463.612 525.342 463.52 524.942 463.52H524.006V467.96H524.942C525.35 467.96 525.694 467.864 525.974 467.672C526.262 467.48 526.482 467.216 526.634 466.88C526.786 466.536 526.862 466.152 526.862 465.728ZM538.248 467.96V470H532.176V461.48H538.14V463.52H534.516V464.72H537.612V466.616H534.516V467.96H538.248ZM541.256 470V461.48H545.168C545.584 461.48 545.968 461.564 546.32 461.732C546.672 461.9 546.976 462.128 547.232 462.416C547.488 462.696 547.684 463.012 547.82 463.364C547.964 463.716 548.036 464.072 548.036 464.432C548.036 464.76 547.988 465.076 547.892 465.38C547.796 465.684 547.656 465.964 547.472 466.22C547.288 466.468 547.068 466.684 546.812 466.868L548.612 470H546.044L544.544 467.384H543.596V470H541.256ZM543.596 465.344H545.072C545.168 465.344 545.26 465.308 545.348 465.236C545.436 465.164 545.508 465.06 545.564 464.924C545.628 464.788 545.66 464.624 545.66 464.432C545.66 464.232 545.624 464.068 545.552 463.94C545.488 463.804 545.404 463.7 545.3 463.628C545.204 463.556 545.108 463.52 545.012 463.52H543.596V465.344ZM556.433 464.264C556.433 464.264 556.365 464.224 556.229 464.144C556.093 464.064 555.913 463.976 555.689 463.88C555.465 463.776 555.221 463.684 554.957 463.604C554.693 463.524 554.433 463.484 554.177 463.484C553.977 463.484 553.813 463.516 553.685 463.58C553.557 463.644 553.493 463.752 553.493 463.904C553.493 464.048 553.557 464.164 553.685 464.252C553.813 464.34 553.993 464.42 554.225 464.492C554.465 464.564 554.749 464.652 555.077 464.756C555.605 464.916 556.061 465.1 556.445 465.308C556.829 465.516 557.125 465.784 557.333 466.112C557.541 466.432 557.645 466.86 557.645 467.396C557.645 467.908 557.553 468.34 557.369 468.692C557.185 469.036 556.937 469.312 556.625 469.52C556.313 469.728 555.965 469.88 555.581 469.976C555.197 470.064 554.805 470.108 554.405 470.108C553.997 470.108 553.569 470.068 553.121 469.988C552.681 469.9 552.253 469.784 551.837 469.64C551.421 469.488 551.041 469.312 550.697 469.112L551.705 467.06C551.705 467.06 551.785 467.108 551.945 467.204C552.105 467.3 552.317 467.408 552.581 467.528C552.845 467.648 553.137 467.756 553.457 467.852C553.785 467.948 554.113 467.996 554.441 467.996C554.697 467.996 554.873 467.964 554.969 467.9C555.073 467.828 555.125 467.736 555.125 467.624C555.125 467.456 555.037 467.328 554.861 467.24C554.685 467.144 554.453 467.056 554.165 466.976C553.885 466.888 553.573 466.788 553.229 466.676C552.733 466.508 552.325 466.32 552.005 466.112C551.685 465.896 551.449 465.644 551.297 465.356C551.145 465.06 551.069 464.704 551.069 464.288C551.069 463.656 551.217 463.128 551.513 462.704C551.809 462.28 552.197 461.96 552.677 461.744C553.165 461.52 553.689 461.408 554.249 461.408C554.665 461.408 555.065 461.46 555.449 461.564C555.841 461.66 556.205 461.78 556.541 461.924C556.885 462.068 557.185 462.204 557.441 462.332L556.433 464.264ZM567.236 463.52H564.788V470H562.448V463.52H559.988V461.48H567.236V463.52ZM571.191 461.48H573.807L576.519 470H574.143L573.627 468.332H571.359L570.855 470H568.467L571.191 461.48ZM573.255 466.772L572.499 463.772L571.707 466.772H573.255ZM581.487 465.812V470H579.147V461.48H580.971L584.391 465.812V461.48H586.731V470H584.871L581.487 465.812ZM590.114 470V461.48H593.39C594.334 461.48 595.122 461.672 595.754 462.056C596.394 462.432 596.874 462.944 597.194 463.592C597.522 464.232 597.686 464.944 597.686 465.728C597.686 466.592 597.506 467.344 597.146 467.984C596.794 468.624 596.294 469.12 595.646 469.472C595.006 469.824 594.254 470 593.39 470H590.114ZM595.31 465.728C595.31 465.288 595.234 464.904 595.082 464.576C594.93 464.24 594.71 463.98 594.422 463.796C594.134 463.612 593.79 463.52 593.39 463.52H592.454V467.96H593.39C593.798 467.96 594.142 467.864 594.422 467.672C594.71 467.48 594.93 467.216 595.082 466.88C595.234 466.536 595.31 466.152 595.31 465.728ZM604.771 465.668C604.771 465.148 604.867 464.64 605.059 464.144C605.259 463.64 605.547 463.184 605.923 462.776C606.299 462.368 606.755 462.044 607.291 461.804C607.835 461.556 608.447 461.432 609.127 461.432C609.943 461.432 610.655 461.604 611.263 461.948C611.871 462.284 612.323 462.732 612.619 463.292L610.831 464.564C610.727 464.284 610.575 464.068 610.375 463.916C610.183 463.764 609.971 463.66 609.739 463.604C609.515 463.54 609.295 463.508 609.079 463.508C608.743 463.508 608.451 463.576 608.203 463.712C607.963 463.84 607.763 464.012 607.603 464.228C607.451 464.444 607.335 464.684 607.255 464.948C607.183 465.212 607.147 465.476 607.147 465.74C607.147 466.036 607.191 466.32 607.279 466.592C607.367 466.864 607.495 467.108 607.663 467.324C607.831 467.532 608.035 467.696 608.275 467.816C608.523 467.936 608.799 467.996 609.103 467.996C609.319 467.996 609.539 467.964 609.763 467.9C609.987 467.828 610.191 467.716 610.375 467.564C610.559 467.412 610.699 467.208 610.795 466.952L612.703 468.092C612.535 468.508 612.255 468.864 611.863 469.16C611.471 469.456 611.027 469.684 610.531 469.844C610.035 469.996 609.543 470.072 609.055 470.072C608.423 470.072 607.843 469.948 607.315 469.7C606.795 469.444 606.343 469.108 605.959 468.692C605.583 468.268 605.291 467.796 605.083 467.276C604.875 466.748 604.771 466.212 604.771 465.668ZM619.176 470.072C618.496 470.072 617.912 469.96 617.424 469.736C616.936 469.512 616.536 469.204 616.224 468.812C615.92 468.42 615.696 467.972 615.552 467.468C615.408 466.956 615.336 466.42 615.336 465.86V461.48H617.676V465.86C617.676 466.14 617.704 466.408 617.76 466.664C617.816 466.92 617.904 467.148 618.024 467.348C618.144 467.548 618.296 467.708 618.48 467.828C618.672 467.94 618.904 467.996 619.176 467.996C619.456 467.996 619.692 467.94 619.884 467.828C620.076 467.708 620.228 467.548 620.34 467.348C620.46 467.14 620.548 466.908 620.604 466.652C620.66 466.396 620.688 466.132 620.688 465.86V461.48H623.028V465.86C623.028 466.452 622.948 467.004 622.788 467.516C622.636 468.028 622.404 468.476 622.092 468.86C621.78 469.244 621.38 469.544 620.892 469.76C620.412 469.968 619.84 470.072 619.176 470.072ZM626.294 470V461.48H630.206C630.622 461.48 631.006 461.564 631.358 461.732C631.71 461.9 632.014 462.128 632.27 462.416C632.526 462.696 632.722 463.012 632.858 463.364C633.002 463.716 633.074 464.072 633.074 464.432C633.074 464.76 633.026 465.076 632.93 465.38C632.834 465.684 632.694 465.964 632.51 466.22C632.326 466.468 632.106 466.684 631.85 466.868L633.65 470H631.082L629.582 467.384H628.634V470H626.294ZM628.634 465.344H630.11C630.206 465.344 630.298 465.308 630.386 465.236C630.474 465.164 630.546 465.06 630.602 464.924C630.666 464.788 630.698 464.624 630.698 464.432C630.698 464.232 630.662 464.068 630.59 463.94C630.526 463.804 630.442 463.7 630.338 463.628C630.242 463.556 630.146 463.52 630.05 463.52H628.634V465.344ZM636.311 470V461.48H640.223C640.639 461.48 641.023 461.564 641.375 461.732C641.727 461.9 642.031 462.128 642.287 462.416C642.543 462.696 642.739 463.012 642.875 463.364C643.019 463.716 643.091 464.072 643.091 464.432C643.091 464.76 643.043 465.076 642.947 465.38C642.851 465.684 642.711 465.964 642.527 466.22C642.343 466.468 642.123 466.684 641.867 466.868L643.667 470H641.099L639.599 467.384H638.651V470H636.311ZM638.651 465.344H640.127C640.223 465.344 640.315 465.308 640.403 465.236C640.491 465.164 640.563 465.06 640.619 464.924C640.683 464.788 640.715 464.624 640.715 464.432C640.715 464.232 640.679 464.068 640.607 463.94C640.543 463.804 640.459 463.7 640.355 463.628C640.259 463.556 640.163 463.52 640.067 463.52H638.651V465.344ZM652.401 467.96V470H646.329V461.48H652.293V463.52H648.669V464.72H651.765V466.616H648.669V467.96H652.401ZM657.749 465.812V470H655.409V461.48H657.233L660.653 465.812V461.48H662.993V470H661.133L657.749 465.812ZM673.012 463.52H670.564V470H668.224V463.52H665.764V461.48H673.012V463.52ZM686.132 467.96V470H680.06V461.48H686.024V463.52H682.4V464.72H685.496V466.616H682.4V467.96H686.132ZM690.808 461.48L692.356 464.168L693.904 461.48H696.424L693.748 465.8L696.328 470H693.808L692.356 467.432L690.904 470H688.372L690.952 465.8L688.276 461.48H690.808ZM698.947 470V461.48H702.619C703.035 461.48 703.419 461.564 703.771 461.732C704.123 461.9 704.427 462.128 704.683 462.416C704.939 462.696 705.135 463.012 705.271 463.364C705.415 463.716 705.487 464.072 705.487 464.432C705.487 464.936 705.367 465.412 705.127 465.86C704.895 466.308 704.567 466.676 704.143 466.964C703.727 467.244 703.239 467.384 702.679 467.384H701.287V470H698.947ZM701.287 465.344H702.523C702.619 465.344 702.711 465.316 702.799 465.26C702.887 465.204 702.959 465.108 703.015 464.972C703.079 464.836 703.111 464.656 703.111 464.432C703.111 464.192 703.075 464.008 703.003 463.88C702.939 463.744 702.855 463.652 702.751 463.604C702.655 463.548 702.559 463.52 702.463 463.52H701.287V465.344ZM714.415 467.96V470H708.343V461.48H714.307V463.52H710.683V464.72H713.779V466.616H710.683V467.96H714.415ZM717.423 470V461.48H721.335C721.751 461.48 722.135 461.564 722.487 461.732C722.839 461.9 723.143 462.128 723.399 462.416C723.655 462.696 723.851 463.012 723.987 463.364C724.131 463.716 724.203 464.072 724.203 464.432C724.203 464.76 724.155 465.076 724.059 465.38C723.963 465.684 723.823 465.964 723.639 466.22C723.455 466.468 723.235 466.684 722.979 466.868L724.779 470H722.211L720.711 467.384H719.763V470H717.423ZM719.763 465.344H721.239C721.335 465.344 721.427 465.308 721.515 465.236C721.603 465.164 721.675 465.06 721.731 464.924C721.795 464.788 721.827 464.624 721.827 464.432C721.827 464.232 721.791 464.068 721.719 463.94C721.655 463.804 721.571 463.7 721.467 463.628C721.371 463.556 721.275 463.52 721.179 463.52H719.763V465.344ZM727.441 470V461.48H729.781V470H727.441ZM739.242 467.96V470H733.17V461.48H739.134V463.52H735.51V464.72H738.605V466.616H735.51V467.96H739.242ZM744.59 465.812V470H742.25V461.48H744.074L747.494 465.812V461.48H749.834V470H747.974L744.59 465.812ZM752.749 465.668C752.749 465.148 752.845 464.64 753.037 464.144C753.237 463.64 753.525 463.184 753.901 462.776C754.277 462.368 754.733 462.044 755.269 461.804C755.813 461.556 756.425 461.432 757.105 461.432C757.921 461.432 758.633 461.604 759.241 461.948C759.849 462.284 760.301 462.732 760.597 463.292L758.809 464.564C758.705 464.284 758.553 464.068 758.353 463.916C758.161 463.764 757.949 463.66 757.717 463.604C757.493 463.54 757.273 463.508 757.057 463.508C756.721 463.508 756.429 463.576 756.181 463.712C755.941 463.84 755.741 464.012 755.581 464.228C755.429 464.444 755.313 464.684 755.233 464.948C755.161 465.212 755.125 465.476 755.125 465.74C755.125 466.036 755.169 466.32 755.257 466.592C755.345 466.864 755.473 467.108 755.641 467.324C755.809 467.532 756.013 467.696 756.253 467.816C756.501 467.936 756.777 467.996 757.081 467.996C757.297 467.996 757.517 467.964 757.741 467.9C757.965 467.828 758.169 467.716 758.353 467.564C758.537 467.412 758.677 467.208 758.773 466.952L760.681 468.092C760.513 468.508 760.233 468.864 759.841 469.16C759.449 469.456 759.005 469.684 758.509 469.844C758.013 469.996 757.521 470.072 757.033 470.072C756.401 470.072 755.821 469.948 755.293 469.7C754.773 469.444 754.321 469.108 753.937 468.692C753.561 468.268 753.269 467.796 753.061 467.276C752.853 466.748 752.749 466.212 752.749 465.668ZM769.505 467.96V470H763.433V461.48H769.397V463.52H765.773V464.72H768.869V466.616H765.773V467.96H769.505Z" fill="black"/>
<line x1="7" y1="282" x2="842.001" y2="282" stroke="black" stroke-width="4"/>
<line x1="844" y1="284" x2="844" y2="224" stroke="black" stroke-width="4"/>
<line x1="8.68457" y1="284.003" x2="8.68457" y2="224.003" stroke="black" stroke-width="4"/>
<line x1="842" y1="342" x2="1242" y2="342" stroke="black" stroke-width="4"/>
<line x1="844" y1="344.003" x2="844" y2="284.003" stroke="black" stroke-width="4"/>
<rect x="288" width="279" height="280" fill="#DEECF4"/>
<path d="M403.219 128V119.48H405.559V128H403.219ZM408.948 128V119.48H412.224C413.168 119.48 413.956 119.672 414.588 120.056C415.228 120.432 415.708 120.944 416.028 121.592C416.356 122.232 416.52 122.944 416.52 123.728C416.52 124.592 416.34 125.344 415.98 125.984C415.628 126.624 415.128 127.12 414.48 127.472C413.84 127.824 413.088 128 412.224 128H408.948ZM414.144 123.728C414.144 123.288 414.068 122.904 413.916 122.576C413.764 122.24 413.544 121.98 413.256 121.796C412.968 121.612 412.624 121.52 412.224 121.52H411.288V125.96H412.224C412.632 125.96 412.976 125.864 413.256 125.672C413.544 125.48 413.764 125.216 413.916 124.88C414.068 124.536 414.144 124.152 414.144 123.728ZM425.53 125.96V128H419.458V119.48H425.422V121.52H421.798V122.72H424.894V124.616H421.798V125.96H425.53ZM430.506 119.48H433.122L435.834 128H433.458L432.942 126.332H430.674L430.17 128H427.782L430.506 119.48ZM432.57 124.772L431.814 121.772L431.022 124.772H432.57ZM444.312 121.52H441.864V128H439.524V121.52H437.064V119.48H444.312V121.52ZM453.157 125.96V128H447.085V119.48H453.049V121.52H449.425V122.72H452.521V124.616H449.425V125.96H453.157ZM426.698 135.48H429.314L432.026 144H429.65L429.134 142.332H426.866L426.362 144H423.974L426.698 135.48ZM428.762 140.772L428.006 137.772L427.214 140.772H428.762ZM396.217 154.264C396.217 154.264 396.149 154.224 396.013 154.144C395.877 154.064 395.697 153.976 395.473 153.88C395.249 153.776 395.005 153.684 394.741 153.604C394.477 153.524 394.217 153.484 393.961 153.484C393.761 153.484 393.597 153.516 393.469 153.58C393.341 153.644 393.277 153.752 393.277 153.904C393.277 154.048 393.341 154.164 393.469 154.252C393.597 154.34 393.777 154.42 394.009 154.492C394.249 154.564 394.533 154.652 394.861 154.756C395.389 154.916 395.845 155.1 396.229 155.308C396.613 155.516 396.909 155.784 397.117 156.112C397.325 156.432 397.429 156.86 397.429 157.396C397.429 157.908 397.337 158.34 397.153 158.692C396.969 159.036 396.721 159.312 396.409 159.52C396.097 159.728 395.749 159.88 395.365 159.976C394.981 160.064 394.589 160.108 394.189 160.108C393.781 160.108 393.353 160.068 392.905 159.988C392.465 159.9 392.037 159.784 391.621 159.64C391.205 159.488 390.825 159.312 390.481 159.112L391.489 157.06C391.489 157.06 391.569 157.108 391.729 157.204C391.889 157.3 392.101 157.408 392.365 157.528C392.629 157.648 392.921 157.756 393.241 157.852C393.569 157.948 393.897 157.996 394.225 157.996C394.481 157.996 394.657 157.964 394.753 157.9C394.857 157.828 394.909 157.736 394.909 157.624C394.909 157.456 394.821 157.328 394.645 157.24C394.469 157.144 394.237 157.056 393.949 156.976C393.669 156.888 393.357 156.788 393.013 156.676C392.517 156.508 392.109 156.32 391.789 156.112C391.469 155.896 391.233 155.644 391.081 155.356C390.929 155.06 390.853 154.704 390.853 154.288C390.853 153.656 391.001 153.128 391.297 152.704C391.593 152.28 391.981 151.96 392.461 151.744C392.949 151.52 393.473 151.408 394.033 151.408C394.449 151.408 394.849 151.46 395.233 151.564C395.625 151.66 395.989 151.78 396.325 151.924C396.669 152.068 396.969 152.204 397.225 152.332L396.217 154.264ZM404.223 160.072C403.575 160.072 402.987 159.952 402.459 159.712C401.931 159.464 401.475 159.136 401.091 158.728C400.715 158.312 400.423 157.848 400.215 157.336C400.015 156.816 399.915 156.28 399.915 155.728C399.915 155.16 400.023 154.62 400.239 154.108C400.455 153.596 400.755 153.14 401.139 152.74C401.531 152.332 401.991 152.012 402.519 151.78C403.055 151.548 403.639 151.432 404.271 151.432C404.919 151.432 405.507 151.556 406.035 151.804C406.563 152.044 407.015 152.372 407.391 152.788C407.767 153.204 408.055 153.672 408.255 154.192C408.463 154.704 408.567 155.232 408.567 155.776C408.567 156.336 408.459 156.872 408.243 157.384C408.035 157.896 407.735 158.356 407.343 158.764C406.959 159.164 406.503 159.484 405.975 159.724C405.447 159.956 404.863 160.072 404.223 160.072ZM402.291 155.752C402.291 156.04 402.331 156.32 402.411 156.592C402.491 156.856 402.611 157.096 402.771 157.312C402.931 157.52 403.131 157.688 403.371 157.816C403.619 157.936 403.911 157.996 404.247 157.996C404.583 157.996 404.875 157.932 405.123 157.804C405.371 157.676 405.571 157.504 405.723 157.288C405.883 157.064 405.999 156.82 406.071 156.556C406.151 156.284 406.191 156.008 406.191 155.728C406.191 155.44 406.151 155.164 406.071 154.9C405.991 154.636 405.871 154.4 405.711 154.192C405.551 153.976 405.347 153.808 405.099 153.688C404.851 153.568 404.563 153.508 404.235 153.508C403.899 153.508 403.607 153.572 403.359 153.7C403.119 153.828 402.919 154 402.759 154.216C402.599 154.424 402.479 154.664 402.399 154.936C402.327 155.2 402.291 155.472 402.291 155.752ZM411.479 160V151.48H413.819V157.96H417.683V160H411.479ZM424.01 160.072C423.33 160.072 422.746 159.96 422.258 159.736C421.77 159.512 421.37 159.204 421.058 158.812C420.754 158.42 420.53 157.972 420.386 157.468C420.242 156.956 420.17 156.42 420.17 155.86V151.48H422.51V155.86C422.51 156.14 422.538 156.408 422.594 156.664C422.65 156.92 422.738 157.148 422.858 157.348C422.978 157.548 423.13 157.708 423.314 157.828C423.506 157.94 423.738 157.996 424.01 157.996C424.29 157.996 424.526 157.94 424.718 157.828C424.91 157.708 425.062 157.548 425.174 157.348C425.294 157.14 425.382 156.908 425.438 156.652C425.494 156.396 425.522 156.132 425.522 155.86V151.48H427.862V155.86C427.862 156.452 427.782 157.004 427.622 157.516C427.47 158.028 427.238 158.476 426.926 158.86C426.614 159.244 426.214 159.544 425.726 159.76C425.246 159.968 424.674 160.072 424.01 160.072ZM437.764 153.52H435.316V160H432.976V153.52H430.516V151.48H437.764V153.52ZM440.536 160V151.48H442.876V160H440.536ZM450.104 160.072C449.456 160.072 448.868 159.952 448.34 159.712C447.812 159.464 447.356 159.136 446.972 158.728C446.596 158.312 446.304 157.848 446.096 157.336C445.896 156.816 445.796 156.28 445.796 155.728C445.796 155.16 445.904 154.62 446.12 154.108C446.336 153.596 446.636 153.14 447.02 152.74C447.412 152.332 447.872 152.012 448.4 151.78C448.936 151.548 449.52 151.432 450.152 151.432C450.8 151.432 451.388 151.556 451.916 151.804C452.444 152.044 452.896 152.372 453.272 152.788C453.648 153.204 453.936 153.672 454.136 154.192C454.344 154.704 454.448 155.232 454.448 155.776C454.448 156.336 454.34 156.872 454.124 157.384C453.916 157.896 453.616 158.356 453.224 158.764C452.84 159.164 452.384 159.484 451.856 159.724C451.328 159.956 450.744 160.072 450.104 160.072ZM448.172 155.752C448.172 156.04 448.212 156.32 448.292 156.592C448.372 156.856 448.492 157.096 448.652 157.312C448.812 157.52 449.012 157.688 449.252 157.816C449.5 157.936 449.792 157.996 450.128 157.996C450.464 157.996 450.756 157.932 451.004 157.804C451.252 157.676 451.452 157.504 451.604 157.288C451.764 157.064 451.88 156.82 451.952 156.556C452.032 156.284 452.072 156.008 452.072 155.728C452.072 155.44 452.032 155.164 451.952 154.9C451.872 154.636 451.752 154.4 451.592 154.192C451.432 153.976 451.228 153.808 450.98 153.688C450.732 153.568 450.444 153.508 450.116 153.508C449.78 153.508 449.488 153.572 449.24 153.7C449 153.828 448.8 154 448.64 154.216C448.48 154.424 448.36 154.664 448.28 154.936C448.208 155.2 448.172 155.472 448.172 155.752ZM459.7 155.812V160H457.36V151.48H459.184L462.604 155.812V151.48H464.944V160H463.084L459.7 155.812Z" fill="black"/>
<rect width="279" height="280" transform="translate(9)" fill="#F0F6DC"/>
<path d="M121.861 128V119.48H125.137C126.081 119.48 126.869 119.672 127.501 120.056C128.141 120.432 128.621 120.944 128.941 121.592C129.269 122.232 129.433 122.944 129.433 123.728C129.433 124.592 129.253 125.344 128.893 125.984C128.541 126.624 128.041 127.12 127.393 127.472C126.753 127.824 126.001 128 125.137 128H121.861ZM127.057 123.728C127.057 123.288 126.981 122.904 126.829 122.576C126.677 122.24 126.457 121.98 126.169 121.796C125.881 121.612 125.537 121.52 125.137 121.52H124.201V125.96H125.137C125.545 125.96 125.889 125.864 126.169 125.672C126.457 125.48 126.677 125.216 126.829 124.88C126.981 124.536 127.057 124.152 127.057 123.728ZM138.443 125.96V128H132.371V119.48H138.335V121.52H134.711V122.72H137.807V124.616H134.711V125.96H138.443ZM141.451 128V119.48H147.295V121.52H143.791V122.936H146.647V124.832H143.791V128H141.451ZM150.132 128V119.48H152.472V128H150.132ZM158.201 123.812V128H155.861V119.48H157.685L161.105 123.812V119.48H163.445V128H161.585L158.201 123.812ZM172.9 125.96V128H166.828V119.48H172.792V121.52H169.168V122.72H172.264V124.616H169.168V125.96H172.9ZM140.816 137.52H138.368V144H136.028V137.52H133.568V135.48H140.816V137.52ZM151.124 135.48V144H148.784V140.664H145.928V144H143.588V135.48H145.928V138.624H148.784V135.48H151.124ZM160.58 141.96V144H154.508V135.48H160.472V137.52H156.848V138.72H159.944V140.616H156.848V141.96H160.58ZM115.796 160V151.48H119.468C119.884 151.48 120.268 151.564 120.62 151.732C120.972 151.9 121.276 152.128 121.532 152.416C121.788 152.696 121.984 153.012 122.12 153.364C122.264 153.716 122.336 154.072 122.336 154.432C122.336 154.936 122.216 155.412 121.976 155.86C121.744 156.308 121.416 156.676 120.992 156.964C120.576 157.244 120.088 157.384 119.528 157.384H118.136V160H115.796ZM118.136 155.344H119.372C119.468 155.344 119.56 155.316 119.648 155.26C119.736 155.204 119.808 155.108 119.864 154.972C119.928 154.836 119.96 154.656 119.96 154.432C119.96 154.192 119.924 154.008 119.852 153.88C119.788 153.744 119.704 153.652 119.6 153.604C119.504 153.548 119.408 153.52 119.312 153.52H118.136V155.344ZM125.193 160V151.48H129.105C129.521 151.48 129.905 151.564 130.257 151.732C130.609 151.9 130.913 152.128 131.169 152.416C131.425 152.696 131.621 153.012 131.757 153.364C131.901 153.716 131.973 154.072 131.973 154.432C131.973 154.76 131.925 155.076 131.829 155.38C131.733 155.684 131.593 155.964 131.409 156.22C131.225 156.468 131.005 156.684 130.749 156.868L132.549 160H129.981L128.481 157.384H127.533V160H125.193ZM127.533 155.344H129.009C129.105 155.344 129.197 155.308 129.285 155.236C129.373 155.164 129.445 155.06 129.501 154.924C129.565 154.788 129.597 154.624 129.597 154.432C129.597 154.232 129.561 154.068 129.489 153.94C129.425 153.804 129.341 153.7 129.237 153.628C129.141 153.556 129.045 153.52 128.949 153.52H127.533V155.344ZM138.945 160.072C138.297 160.072 137.709 159.952 137.181 159.712C136.653 159.464 136.197 159.136 135.813 158.728C135.437 158.312 135.145 157.848 134.937 157.336C134.737 156.816 134.637 156.28 134.637 155.728C134.637 155.16 134.745 154.62 134.961 154.108C135.177 153.596 135.477 153.14 135.861 152.74C136.253 152.332 136.713 152.012 137.241 151.78C137.777 151.548 138.361 151.432 138.993 151.432C139.641 151.432 140.229 151.556 140.757 151.804C141.285 152.044 141.737 152.372 142.113 152.788C142.489 153.204 142.777 153.672 142.977 154.192C143.185 154.704 143.289 155.232 143.289 155.776C143.289 156.336 143.181 156.872 142.965 157.384C142.757 157.896 142.457 158.356 142.065 158.764C141.681 159.164 141.225 159.484 140.697 159.724C140.169 159.956 139.585 160.072 138.945 160.072ZM137.013 155.752C137.013 156.04 137.053 156.32 137.133 156.592C137.213 156.856 137.333 157.096 137.493 157.312C137.653 157.52 137.853 157.688 138.093 157.816C138.341 157.936 138.633 157.996 138.969 157.996C139.305 157.996 139.597 157.932 139.845 157.804C140.093 157.676 140.293 157.504 140.445 157.288C140.605 157.064 140.721 156.82 140.793 156.556C140.873 156.284 140.913 156.008 140.913 155.728C140.913 155.44 140.873 155.164 140.793 154.9C140.713 154.636 140.593 154.4 140.433 154.192C140.273 153.976 140.069 153.808 139.821 153.688C139.573 153.568 139.285 153.508 138.957 153.508C138.621 153.508 138.329 153.572 138.081 153.7C137.841 153.828 137.641 154 137.481 154.216C137.321 154.424 137.201 154.664 137.121 154.936C137.049 155.2 137.013 155.472 137.013 155.752ZM153.449 157.816C153.449 158.328 153.309 158.744 153.029 159.064C152.757 159.384 152.389 159.62 151.925 159.772C151.461 159.924 150.949 160 150.389 160H146.201V151.48H151.145C151.545 151.48 151.889 151.588 152.177 151.804C152.473 152.012 152.697 152.284 152.849 152.62C153.009 152.956 153.089 153.304 153.089 153.664C153.089 154.056 152.985 154.436 152.777 154.804C152.577 155.172 152.273 155.448 151.865 155.632C152.353 155.776 152.737 156.028 153.017 156.388C153.305 156.748 153.449 157.224 153.449 157.816ZM151.073 157.336C151.073 157.192 151.045 157.068 150.989 156.964C150.941 156.852 150.873 156.764 150.785 156.7C150.697 156.636 150.593 156.604 150.473 156.604H148.541V158.032H150.389C150.517 158.032 150.633 158.004 150.737 157.948C150.841 157.892 150.921 157.812 150.977 157.708C151.041 157.604 151.073 157.48 151.073 157.336ZM148.541 153.472V154.78H150.137C150.241 154.78 150.341 154.764 150.437 154.732C150.533 154.692 150.613 154.624 150.677 154.528C150.741 154.432 150.773 154.296 150.773 154.12C150.773 153.96 150.745 153.836 150.689 153.748C150.641 153.652 150.573 153.584 150.485 153.544C150.405 153.496 150.313 153.472 150.209 153.472H148.541ZM156.406 160V151.48H158.746V157.96H162.61V160H156.406ZM171.417 157.96V160H165.345V151.48H171.309V153.52H167.685V154.72H170.781V156.616H167.685V157.96H171.417ZM180.87 160V155.512L179.442 158.668H178.194L176.766 155.512V160H174.426V151.48H176.982L178.818 155.488L180.666 151.48H183.21V160H180.87Z" fill="black"/>
<rect x="567" width="279" height="280" fill="#F0F6DC"/>
<path d="M677.143 133.96V136H671.071V127.48H677.035V129.52H673.411V130.72H676.507V132.616H673.411V133.96H677.143ZM681.795 127.48L683.463 133.3L685.107 127.48H687.567L684.627 136H682.299L679.323 127.48H681.795ZM691.41 127.48H694.026L696.738 136H694.362L693.846 134.332H691.578L691.074 136H688.686L691.41 127.48ZM693.474 132.772L692.718 129.772L691.926 132.772H693.474ZM699.366 136V127.48H701.706V133.96H705.57V136H699.366ZM711.896 136.072C711.216 136.072 710.632 135.96 710.144 135.736C709.656 135.512 709.256 135.204 708.944 134.812C708.64 134.42 708.416 133.972 708.272 133.468C708.128 132.956 708.056 132.42 708.056 131.86V127.48H710.396V131.86C710.396 132.14 710.424 132.408 710.48 132.664C710.536 132.92 710.624 133.148 710.744 133.348C710.864 133.548 711.016 133.708 711.2 133.828C711.392 133.94 711.624 133.996 711.896 133.996C712.176 133.996 712.412 133.94 712.604 133.828C712.796 133.708 712.948 133.548 713.06 133.348C713.18 133.14 713.268 132.908 713.324 132.652C713.38 132.396 713.408 132.132 713.408 131.86V127.48H715.748V131.86C715.748 132.452 715.668 133.004 715.508 133.516C715.356 134.028 715.124 134.476 714.812 134.86C714.5 135.244 714.1 135.544 713.612 135.76C713.132 135.968 712.56 136.072 711.896 136.072ZM720.654 127.48H723.27L725.982 136H723.606L723.09 134.332H720.822L720.318 136H717.93L720.654 127.48ZM722.718 132.772L721.962 129.772L721.17 132.772H722.718ZM734.461 129.52H732.013V136H729.673V129.52H727.213V127.48H734.461V129.52ZM743.305 133.96V136H737.233V127.48H743.197V129.52H739.573V130.72H742.669V132.616H739.573V133.96H743.305ZM675.712 152.072C675.064 152.072 674.476 151.952 673.948 151.712C673.42 151.464 672.964 151.136 672.58 150.728C672.204 150.312 671.912 149.848 671.704 149.336C671.504 148.816 671.404 148.28 671.404 147.728C671.404 147.16 671.512 146.62 671.728 146.108C671.944 145.596 672.244 145.14 672.628 144.74C673.02 144.332 673.48 144.012 674.008 143.78C674.544 143.548 675.128 143.432 675.76 143.432C676.408 143.432 676.996 143.556 677.524 143.804C678.052 144.044 678.504 144.372 678.88 144.788C679.256 145.204 679.544 145.672 679.744 146.192C679.952 146.704 680.056 147.232 680.056 147.776C680.056 148.336 679.948 148.872 679.732 149.384C679.524 149.896 679.224 150.356 678.832 150.764C678.448 151.164 677.992 151.484 677.464 151.724C676.936 151.956 676.352 152.072 675.712 152.072ZM673.78 147.752C673.78 148.04 673.82 148.32 673.9 148.592C673.98 148.856 674.1 149.096 674.26 149.312C674.42 149.52 674.62 149.688 674.86 149.816C675.108 149.936 675.4 149.996 675.736 149.996C676.072 149.996 676.364 149.932 676.612 149.804C676.86 149.676 677.06 149.504 677.212 149.288C677.372 149.064 677.488 148.82 677.56 148.556C677.64 148.284 677.68 148.008 677.68 147.728C677.68 147.44 677.64 147.164 677.56 146.9C677.48 146.636 677.36 146.4 677.2 146.192C677.04 145.976 676.836 145.808 676.588 145.688C676.34 145.568 676.052 145.508 675.724 145.508C675.388 145.508 675.096 145.572 674.848 145.7C674.608 145.828 674.408 146 674.248 146.216C674.088 146.424 673.968 146.664 673.888 146.936C673.816 147.2 673.78 147.472 673.78 147.752ZM686.688 152.072C686.008 152.072 685.424 151.96 684.936 151.736C684.448 151.512 684.048 151.204 683.736 150.812C683.432 150.42 683.208 149.972 683.064 149.468C682.92 148.956 682.848 148.42 682.848 147.86V143.48H685.188V147.86C685.188 148.14 685.216 148.408 685.272 148.664C685.328 148.92 685.416 149.148 685.536 149.348C685.656 149.548 685.808 149.708 685.992 149.828C686.184 149.94 686.416 149.996 686.688 149.996C686.968 149.996 687.204 149.94 687.396 149.828C687.588 149.708 687.74 149.548 687.852 149.348C687.972 149.14 688.06 148.908 688.116 148.652C688.172 148.396 688.2 148.132 688.2 147.86V143.48H690.54V147.86C690.54 148.452 690.46 149.004 690.3 149.516C690.148 150.028 689.916 150.476 689.604 150.86C689.292 151.244 688.892 151.544 688.404 151.76C687.924 151.968 687.352 152.072 686.688 152.072ZM700.442 145.52H697.994V152H695.654V145.52H693.194V143.48H700.442V145.52ZM702.618 147.668C702.618 147.148 702.714 146.64 702.906 146.144C703.106 145.64 703.394 145.184 703.77 144.776C704.146 144.368 704.602 144.044 705.138 143.804C705.682 143.556 706.294 143.432 706.974 143.432C707.79 143.432 708.502 143.604 709.11 143.948C709.718 144.284 710.17 144.732 710.466 145.292L708.678 146.564C708.574 146.284 708.422 146.068 708.222 145.916C708.03 145.764 707.818 145.66 707.586 145.604C707.362 145.54 707.142 145.508 706.926 145.508C706.59 145.508 706.298 145.576 706.05 145.712C705.81 145.84 705.61 146.012 705.45 146.228C705.298 146.444 705.182 146.684 705.102 146.948C705.03 147.212 704.994 147.476 704.994 147.74C704.994 148.036 705.038 148.32 705.126 148.592C705.214 148.864 705.342 149.108 705.51 149.324C705.678 149.532 705.882 149.696 706.122 149.816C706.37 149.936 706.646 149.996 706.95 149.996C707.166 149.996 707.386 149.964 707.61 149.9C707.834 149.828 708.038 149.716 708.222 149.564C708.406 149.412 708.546 149.208 708.642 148.952L710.55 150.092C710.382 150.508 710.102 150.864 709.71 151.16C709.318 151.456 708.874 151.684 708.378 151.844C707.882 151.996 707.39 152.072 706.902 152.072C706.27 152.072 705.69 151.948 705.162 151.7C704.642 151.444 704.19 151.108 703.806 150.692C703.43 150.268 703.138 149.796 702.93 149.276C702.722 148.748 702.618 148.212 702.618 147.668ZM717.013 152.072C716.365 152.072 715.777 151.952 715.249 151.712C714.721 151.464 714.265 151.136 713.881 150.728C713.505 150.312 713.213 149.848 713.005 149.336C712.805 148.816 712.705 148.28 712.705 147.728C712.705 147.16 712.813 146.62 713.029 146.108C713.245 145.596 713.545 145.14 713.929 144.74C714.321 144.332 714.781 144.012 715.309 143.78C715.845 143.548 716.429 143.432 717.061 143.432C717.709 143.432 718.297 143.556 718.825 143.804C719.353 144.044 719.805 144.372 720.181 144.788C720.557 145.204 720.845 145.672 721.045 146.192C721.253 146.704 721.357 147.232 721.357 147.776C721.357 148.336 721.249 148.872 721.033 149.384C720.825 149.896 720.525 150.356 720.133 150.764C719.749 151.164 719.293 151.484 718.765 151.724C718.237 151.956 717.653 152.072 717.013 152.072ZM715.081 147.752C715.081 148.04 715.121 148.32 715.201 148.592C715.281 148.856 715.401 149.096 715.561 149.312C715.721 149.52 715.921 149.688 716.161 149.816C716.409 149.936 716.701 149.996 717.037 149.996C717.373 149.996 717.665 149.932 717.913 149.804C718.161 149.676 718.361 149.504 718.513 149.288C718.673 149.064 718.789 148.82 718.861 148.556C718.941 148.284 718.981 148.008 718.981 147.728C718.981 147.44 718.941 147.164 718.861 146.9C718.781 146.636 718.661 146.4 718.501 146.192C718.341 145.976 718.137 145.808 717.889 145.688C717.641 145.568 717.353 145.508 717.025 145.508C716.689 145.508 716.397 145.572 716.149 145.7C715.909 145.828 715.709 146 715.549 146.216C715.389 146.424 715.269 146.664 715.189 146.936C715.117 147.2 715.081 147.472 715.081 147.752ZM730.713 152V147.512L729.285 150.668H728.037L726.609 147.512V152H724.269V143.48H726.825L728.661 147.488L730.509 143.48H733.053V152H730.713ZM742.503 149.96V152H736.431V143.48H742.395V145.52H738.771V146.72H741.867V148.616H738.771V149.96H742.503Z" fill="black"/>
<path d="M389.99 317.352C389.99 317.352 389.899 317.299 389.718 317.192C389.536 317.085 389.296 316.968 388.998 316.84C388.699 316.701 388.374 316.579 388.022 316.472C387.67 316.365 387.323 316.312 386.982 316.312C386.715 316.312 386.496 316.355 386.326 316.44C386.155 316.525 386.07 316.669 386.07 316.872C386.07 317.064 386.155 317.219 386.326 317.336C386.496 317.453 386.736 317.56 387.046 317.656C387.366 317.752 387.744 317.869 388.182 318.008C388.886 318.221 389.494 318.467 390.006 318.744C390.518 319.021 390.912 319.379 391.19 319.816C391.467 320.243 391.606 320.813 391.606 321.528C391.606 322.211 391.483 322.787 391.238 323.256C390.992 323.715 390.662 324.083 390.246 324.36C389.83 324.637 389.366 324.84 388.854 324.968C388.342 325.085 387.819 325.144 387.286 325.144C386.742 325.144 386.171 325.091 385.574 324.984C384.987 324.867 384.416 324.712 383.862 324.52C383.307 324.317 382.8 324.083 382.342 323.816L383.686 321.08C383.686 321.08 383.792 321.144 384.006 321.272C384.219 321.4 384.502 321.544 384.854 321.704C385.206 321.864 385.595 322.008 386.022 322.136C386.459 322.264 386.896 322.328 387.334 322.328C387.675 322.328 387.91 322.285 388.038 322.2C388.176 322.104 388.246 321.981 388.246 321.832C388.246 321.608 388.128 321.437 387.894 321.32C387.659 321.192 387.35 321.075 386.966 320.968C386.592 320.851 386.176 320.717 385.718 320.568C385.056 320.344 384.512 320.093 384.086 319.816C383.659 319.528 383.344 319.192 383.142 318.808C382.939 318.413 382.838 317.939 382.838 317.384C382.838 316.541 383.035 315.837 383.43 315.272C383.824 314.707 384.342 314.28 384.982 313.992C385.632 313.693 386.331 313.544 387.078 313.544C387.632 313.544 388.166 313.613 388.678 313.752C389.2 313.88 389.686 314.04 390.134 314.232C390.592 314.424 390.992 314.605 391.334 314.776L389.99 317.352ZM395.545 325V313.64H400.441C400.995 313.64 401.507 313.752 401.977 313.976C402.446 314.2 402.851 314.504 403.193 314.888C403.534 315.261 403.795 315.683 403.977 316.152C404.169 316.621 404.265 317.096 404.265 317.576C404.265 318.248 404.105 318.883 403.785 319.48C403.475 320.077 403.038 320.568 402.473 320.952C401.918 321.325 401.267 321.512 400.521 321.512H398.665V325H395.545ZM398.665 318.792H400.313C400.441 318.792 400.563 318.755 400.681 318.68C400.798 318.605 400.894 318.477 400.969 318.296C401.054 318.115 401.097 317.875 401.097 317.576C401.097 317.256 401.049 317.011 400.953 316.84C400.867 316.659 400.755 316.536 400.617 316.472C400.489 316.397 400.361 316.36 400.233 316.36H398.665V318.792ZM408.073 325V313.64H413.29C413.844 313.64 414.356 313.752 414.826 313.976C415.295 314.2 415.7 314.504 416.042 314.888C416.383 315.261 416.644 315.683 416.826 316.152C417.018 316.621 417.114 317.096 417.114 317.576C417.114 318.013 417.05 318.435 416.922 318.84C416.794 319.245 416.607 319.619 416.362 319.96C416.116 320.291 415.823 320.579 415.482 320.824L417.882 325H414.457L412.457 321.512H411.194V325H408.073ZM411.194 318.792H413.161C413.29 318.792 413.412 318.744 413.53 318.648C413.647 318.552 413.743 318.413 413.818 318.232C413.903 318.051 413.946 317.832 413.946 317.576C413.946 317.309 413.898 317.091 413.802 316.92C413.716 316.739 413.604 316.6 413.466 316.504C413.338 316.408 413.209 316.36 413.082 316.36H411.194V318.792ZM421.43 325V313.64H424.55V325H421.43ZM432.188 319.416V325H429.068V313.64H431.5L436.06 319.416V313.64H439.18V325H436.7L432.188 319.416ZM452.539 316.36H449.275V325H446.155V316.36H442.875V313.64H452.539V316.36ZM467.015 325H464.733V317.188H462.069V315.672C462.772 315.641 463.265 315.594 463.546 315.531C463.994 315.432 464.358 315.234 464.64 314.938C464.832 314.734 464.978 314.464 465.077 314.125C465.134 313.922 465.163 313.771 465.163 313.672H467.015V325Z" fill="black"/>
<path d="M1017.99 374.352C1017.99 374.352 1017.9 374.299 1017.72 374.192C1017.54 374.085 1017.3 373.968 1017 373.84C1016.7 373.701 1016.37 373.579 1016.02 373.472C1015.67 373.365 1015.32 373.312 1014.98 373.312C1014.72 373.312 1014.5 373.355 1014.33 373.44C1014.16 373.525 1014.07 373.669 1014.07 373.872C1014.07 374.064 1014.16 374.219 1014.33 374.336C1014.5 374.453 1014.74 374.56 1015.05 374.656C1015.37 374.752 1015.74 374.869 1016.18 375.008C1016.89 375.221 1017.49 375.467 1018.01 375.744C1018.52 376.021 1018.91 376.379 1019.19 376.816C1019.47 377.243 1019.61 377.813 1019.61 378.528C1019.61 379.211 1019.48 379.787 1019.24 380.256C1018.99 380.715 1018.66 381.083 1018.25 381.36C1017.83 381.637 1017.37 381.84 1016.85 381.968C1016.34 382.085 1015.82 382.144 1015.29 382.144C1014.74 382.144 1014.17 382.091 1013.57 381.984C1012.99 381.867 1012.42 381.712 1011.86 381.52C1011.31 381.317 1010.8 381.083 1010.34 380.816L1011.69 378.08C1011.69 378.08 1011.79 378.144 1012.01 378.272C1012.22 378.4 1012.5 378.544 1012.85 378.704C1013.21 378.864 1013.6 379.008 1014.02 379.136C1014.46 379.264 1014.9 379.328 1015.33 379.328C1015.68 379.328 1015.91 379.285 1016.04 379.2C1016.18 379.104 1016.25 378.981 1016.25 378.832C1016.25 378.608 1016.13 378.437 1015.89 378.32C1015.66 378.192 1015.35 378.075 1014.97 377.968C1014.59 377.851 1014.18 377.717 1013.72 377.568C1013.06 377.344 1012.51 377.093 1012.09 376.816C1011.66 376.528 1011.34 376.192 1011.14 375.808C1010.94 375.413 1010.84 374.939 1010.84 374.384C1010.84 373.541 1011.04 372.837 1011.43 372.272C1011.82 371.707 1012.34 371.28 1012.98 370.992C1013.63 370.693 1014.33 370.544 1015.08 370.544C1015.63 370.544 1016.17 370.613 1016.68 370.752C1017.2 370.88 1017.69 371.04 1018.13 371.232C1018.59 371.424 1018.99 371.605 1019.33 371.776L1017.99 374.352ZM1023.54 382V370.64H1028.44C1029 370.64 1029.51 370.752 1029.98 370.976C1030.45 371.2 1030.85 371.504 1031.19 371.888C1031.53 372.261 1031.8 372.683 1031.98 373.152C1032.17 373.621 1032.26 374.096 1032.26 374.576C1032.26 375.248 1032.1 375.883 1031.78 376.48C1031.48 377.077 1031.04 377.568 1030.47 377.952C1029.92 378.325 1029.27 378.512 1028.52 378.512H1026.66V382H1023.54ZM1026.66 375.792H1028.31C1028.44 375.792 1028.56 375.755 1028.68 375.68C1028.8 375.605 1028.89 375.477 1028.97 375.296C1029.05 375.115 1029.1 374.875 1029.1 374.576C1029.1 374.256 1029.05 374.011 1028.95 373.84C1028.87 373.659 1028.76 373.536 1028.62 373.472C1028.49 373.397 1028.36 373.36 1028.23 373.36H1026.66V375.792ZM1036.07 382V370.64H1041.29C1041.84 370.64 1042.36 370.752 1042.83 370.976C1043.29 371.2 1043.7 371.504 1044.04 371.888C1044.38 372.261 1044.64 372.683 1044.83 373.152C1045.02 373.621 1045.11 374.096 1045.11 374.576C1045.11 375.013 1045.05 375.435 1044.92 375.84C1044.79 376.245 1044.61 376.619 1044.36 376.96C1044.12 377.291 1043.82 377.579 1043.48 377.824L1045.88 382H1042.46L1040.46 378.512H1039.19V382H1036.07ZM1039.19 375.792H1041.16C1041.29 375.792 1041.41 375.744 1041.53 375.648C1041.65 375.552 1041.74 375.413 1041.82 375.232C1041.9 375.051 1041.95 374.832 1041.95 374.576C1041.95 374.309 1041.9 374.091 1041.8 373.92C1041.72 373.739 1041.6 373.6 1041.47 373.504C1041.34 373.408 1041.21 373.36 1041.08 373.36H1039.19V375.792ZM1049.43 382V370.64H1052.55V382H1049.43ZM1060.19 376.416V382H1057.07V370.64H1059.5L1064.06 376.416V370.64H1067.18V382H1064.7L1060.19 376.416ZM1080.54 373.36H1077.28V382H1074.16V373.36H1070.88V370.64H1080.54V373.36ZM1094.52 372.977C1094.26 372.659 1093.88 372.5 1093.38 372.5C1092.7 372.5 1092.24 372.753 1092 373.258C1091.86 373.549 1091.78 374.013 1091.75 374.648H1089.58C1089.62 373.685 1089.8 372.906 1090.11 372.312C1090.7 371.182 1091.76 370.617 1093.27 370.617C1094.47 370.617 1095.42 370.951 1096.13 371.617C1096.84 372.279 1097.19 373.156 1097.19 374.25C1097.19 375.089 1096.94 375.833 1096.44 376.484C1096.12 376.917 1095.58 377.398 1094.83 377.93L1093.94 378.562C1093.38 378.958 1093 379.245 1092.79 379.422C1092.58 379.599 1092.41 379.805 1092.27 380.039H1097.22V382H1089.46C1089.48 381.188 1089.66 380.445 1089.98 379.773C1090.3 379.018 1091.05 378.219 1092.23 377.375C1093.26 376.641 1093.92 376.115 1094.23 375.797C1094.69 375.302 1094.92 374.76 1094.92 374.172C1094.92 373.693 1094.79 373.294 1094.52 372.977Z" fill="black"/>
<path d="M912.906 321V303.96H917.586V321H912.906ZM937.252 321V312.024L934.396 318.336H931.9L929.044 312.024V321H924.364V303.96H929.476L933.148 311.976L936.844 303.96H941.932V321H937.252ZM948.688 321V303.96H956.032C956.864 303.96 957.632 304.128 958.336 304.464C959.04 304.8 959.648 305.256 960.16 305.832C960.672 306.392 961.064 307.024 961.336 307.728C961.624 308.432 961.768 309.144 961.768 309.864C961.768 310.872 961.528 311.824 961.048 312.72C960.584 313.616 959.928 314.352 959.08 314.928C958.248 315.488 957.272 315.768 956.152 315.768H953.368V321H948.688ZM953.368 311.688H955.84C956.032 311.688 956.216 311.632 956.392 311.52C956.568 311.408 956.712 311.216 956.824 310.944C956.952 310.672 957.016 310.312 957.016 309.864C957.016 309.384 956.944 309.016 956.8 308.76C956.672 308.488 956.504 308.304 956.296 308.208C956.104 308.096 955.912 308.04 955.72 308.04H953.368V311.688ZM967.481 321V303.96H972.161V316.92H979.889V321H967.481ZM997.504 316.92V321H985.36V303.96H997.288V308.04H990.04V310.44H996.232V314.232H990.04V316.92H997.504ZM1016.41 321V312.024L1013.55 318.336H1011.06L1008.2 312.024V321H1003.52V303.96H1008.63L1012.3 311.976L1016 303.96H1021.09V321H1016.41ZM1039.99 316.92V321H1027.84V303.96H1039.77V308.04H1032.52V310.44H1038.72V314.232H1032.52V316.92H1039.99ZM1050.69 312.624V321H1046.01V303.96H1049.65L1056.49 312.624V303.96H1061.17V321H1057.45L1050.69 312.624ZM1081.21 308.04H1076.31V321H1071.63V308.04H1066.71V303.96H1081.21V308.04ZM1089.12 303.96H1094.35L1099.78 321H1095.03L1093.99 317.664H1089.46L1088.45 321H1083.67L1089.12 303.96ZM1093.25 314.544L1091.74 308.544L1090.15 314.544H1093.25ZM1116.73 308.04H1111.84V321H1107.16V308.04H1102.24V303.96H1116.73V308.04ZM1122.28 321V303.96H1126.96V321H1122.28ZM1141.42 321.144C1140.12 321.144 1138.94 320.904 1137.89 320.424C1136.83 319.928 1135.92 319.272 1135.15 318.456C1134.4 317.624 1133.82 316.696 1133.4 315.672C1133 314.632 1132.8 313.56 1132.8 312.456C1132.8 311.32 1133.02 310.24 1133.45 309.216C1133.88 308.192 1134.48 307.28 1135.25 306.48C1136.03 305.664 1136.95 305.024 1138.01 304.56C1139.08 304.096 1140.25 303.864 1141.51 303.864C1142.81 303.864 1143.98 304.112 1145.04 304.608C1146.1 305.088 1147 305.744 1147.75 306.576C1148.5 307.408 1149.08 308.344 1149.48 309.384C1149.9 310.408 1150.1 311.464 1150.1 312.552C1150.1 313.672 1149.89 314.744 1149.46 315.768C1149.04 316.792 1148.44 317.712 1147.66 318.528C1146.89 319.328 1145.98 319.968 1144.92 320.448C1143.86 320.912 1142.7 321.144 1141.42 321.144ZM1137.55 312.504C1137.55 313.08 1137.63 313.64 1137.79 314.184C1137.95 314.712 1138.19 315.192 1138.51 315.624C1138.83 316.04 1139.23 316.376 1139.71 316.632C1140.21 316.872 1140.79 316.992 1141.46 316.992C1142.14 316.992 1142.72 316.864 1143.22 316.608C1143.71 316.352 1144.11 316.008 1144.42 315.576C1144.74 315.128 1144.97 314.64 1145.11 314.112C1145.27 313.568 1145.35 313.016 1145.35 312.456C1145.35 311.88 1145.27 311.328 1145.11 310.8C1144.95 310.272 1144.71 309.8 1144.39 309.384C1144.07 308.952 1143.66 308.616 1143.17 308.376C1142.67 308.136 1142.1 308.016 1141.44 308.016C1140.77 308.016 1140.18 308.144 1139.69 308.4C1139.21 308.656 1138.81 309 1138.49 309.432C1138.17 309.848 1137.93 310.328 1137.77 310.872C1137.62 311.4 1137.55 311.944 1137.55 312.504ZM1160.61 312.624V321H1155.93V303.96H1159.58L1166.42 312.624V303.96H1171.1V321H1167.38L1160.61 312.624Z" fill="black"/>
<path d="M1046.2 263.865C1046.67 264.861 1047.87 265.281 1048.87 264.803L1065.09 257.017C1066.09 256.539 1066.51 255.344 1066.03 254.349C1065.55 253.353 1064.36 252.933 1063.36 253.411L1048.94 260.332L1042.02 245.906C1041.54 244.91 1040.34 244.49 1039.35 244.968C1038.35 245.446 1037.93 246.64 1038.41 247.636L1046.2 263.865ZM1055.5 146.5L1053.62 147.171L1055.5 146.5ZM1048 263C1049.89 263.663 1049.89 263.663 1049.89 263.662C1049.89 263.661 1049.89 263.66 1049.89 263.659C1049.89 263.656 1049.89 263.652 1049.89 263.647C1049.9 263.638 1049.9 263.624 1049.91 263.607C1049.92 263.571 1049.94 263.519 1049.96 263.45C1050.01 263.313 1050.08 263.112 1050.17 262.848C1050.34 262.32 1050.6 261.543 1050.92 260.541C1051.56 258.535 1052.45 255.623 1053.47 251.984C1055.5 244.707 1058.03 234.509 1060.03 222.819C1064.03 199.515 1065.98 169.969 1057.38 145.829L1053.62 147.171C1061.85 170.314 1060.06 199.018 1056.09 222.143C1054.12 233.668 1051.62 243.729 1049.61 250.908C1048.61 254.496 1047.73 257.362 1047.11 259.326C1046.79 260.308 1046.54 261.065 1046.37 261.574C1046.29 261.829 1046.22 262.022 1046.18 262.15C1046.16 262.214 1046.14 262.261 1046.13 262.293C1046.12 262.308 1046.12 262.32 1046.12 262.327C1046.12 262.331 1046.11 262.334 1046.11 262.335C1046.11 262.336 1046.11 262.336 1046.11 262.337C1046.11 262.337 1046.11 262.337 1048 263ZM1057.38 145.829C1053.05 133.671 1042.09 124.774 1027.38 118.83C1012.65 112.877 993.901 109.764 973.452 109.331C932.56 108.465 884.398 118.304 847.057 138.236L848.941 141.765C885.601 122.196 933.069 112.476 973.367 113.33C993.512 113.757 1011.75 116.825 1025.88 122.539C1040.04 128.262 1049.82 136.52 1053.62 147.171L1057.38 145.829Z" fill="#3E3E3E"/>
<path d="M565.343 266.403C564.808 266.651 564.192 266.651 563.657 266.403L296.648 142.314C295.105 141.597 295.105 139.403 296.648 138.686L563.657 14.5972C564.192 14.3488 564.808 14.3488 565.343 14.5972L832.352 138.686C833.895 139.403 833.895 141.597 832.352 142.314L565.343 266.403Z" stroke="black" stroke-width="4"/>
<path d="M10 269L281 140.5L10 12" stroke="black" stroke-width="4"/>
</svg>
