<svg width="83" height="59" viewBox="0 0 83 59" fill="none" xmlns="http://www.w3.org/2000/svg">
<rect y="0.5" width="83" height="58" rx="25" fill="#646464"/>
<path d="M21.357 25.748H11.021V21.844H28.109L16.845 44.564H11.981L21.357 25.748ZM46.1425 31.124C46.1425 33.0013 45.7798 34.676 45.0545 36.148C44.3505 37.5987 43.3692 38.74 42.1105 39.572C40.8732 40.404 39.4652 40.82 37.8865 40.82C36.3078 40.82 34.8892 40.404 33.6305 39.572C32.3932 38.74 31.4118 37.5987 30.6865 36.148C29.9825 34.676 29.6305 33.0013 29.6305 31.124C29.6305 29.2467 29.9825 27.5827 30.6865 26.132C31.4118 24.66 32.3932 23.508 33.6305 22.676C34.8892 21.8227 36.3078 21.396 37.8865 21.396C39.4652 21.396 40.8732 21.8227 42.1105 22.676C43.3692 23.508 44.3505 24.66 45.0545 26.132C45.7798 27.5827 46.1425 29.2467 46.1425 31.124ZM41.8225 31.124C41.8225 29.972 41.6518 28.9693 41.3105 28.116C40.9905 27.2413 40.5318 26.5587 39.9345 26.068C39.3372 25.5773 38.6545 25.332 37.8865 25.332C37.0972 25.332 36.4038 25.5773 35.8065 26.068C35.2092 26.5587 34.7398 27.2413 34.3985 28.116C34.0785 28.9693 33.9185 29.972 33.9185 31.124C33.9185 32.276 34.0785 33.2787 34.3985 34.132C34.7398 34.9853 35.2092 35.6573 35.8065 36.148C36.4038 36.6387 37.0972 36.884 37.8865 36.884C38.6545 36.884 39.3265 36.6387 39.9025 36.148C40.4998 35.6573 40.9692 34.9853 41.3105 34.132C41.6518 33.2573 41.8225 32.2547 41.8225 31.124ZM54.1188 27.156C53.1374 27.156 52.2521 26.9427 51.4628 26.516C50.6734 26.068 50.0334 25.4813 49.5428 24.756C49.0734 24.0093 48.8388 23.188 48.8388 22.292C48.8388 21.396 49.0734 20.5853 49.5428 19.86C50.0334 19.1133 50.6734 18.5267 51.4628 18.1C52.2521 17.6733 53.1374 17.46 54.1188 17.46C55.1001 17.46 55.9854 17.6733 56.7748 18.1C57.5854 18.5267 58.2254 19.1133 58.6948 19.86C59.1641 20.5853 59.3988 21.396 59.3988 22.292C59.3988 23.188 59.1641 24.0093 58.6948 24.756C58.2254 25.4813 57.5854 26.068 56.7748 26.516C55.9854 26.9427 55.1001 27.156 54.1188 27.156ZM54.1188 25.012C54.5454 25.012 54.9294 24.884 55.2708 24.628C55.6121 24.372 55.8788 24.0413 56.0708 23.636C56.2841 23.2307 56.3908 22.7933 56.3908 22.324C56.3908 21.812 56.2841 21.3533 56.0708 20.948C55.8574 20.5427 55.5801 20.2227 55.2388 19.988C54.8974 19.732 54.5241 19.604 54.1188 19.604C53.6921 19.604 53.3081 19.732 52.9668 19.988C52.6254 20.2227 52.3481 20.5427 52.1348 20.948C51.9428 21.3533 51.8468 21.8013 51.8468 22.292C51.8468 22.7827 51.9534 23.2413 52.1668 23.668C52.3801 24.0733 52.6574 24.404 52.9988 24.66C53.3401 24.8947 53.7134 25.012 54.1188 25.012ZM66.4708 40.82C65.4894 40.82 64.6041 40.6067 63.8148 40.18C63.0254 39.7533 62.3854 39.1773 61.8948 38.452C61.4254 37.7053 61.1908 36.884 61.1908 35.988C61.1908 35.0707 61.4254 34.2493 61.8948 33.524C62.3854 32.7987 63.0254 32.2227 63.8148 31.796C64.6041 31.348 65.4894 31.124 66.4708 31.124C67.4521 31.124 68.3374 31.348 69.1268 31.796C69.9374 32.2227 70.5774 32.7987 71.0468 33.524C71.5161 34.2493 71.7508 35.06 71.7508 35.956C71.7508 36.852 71.5161 37.6733 71.0468 38.42C70.5774 39.1453 69.9374 39.732 69.1268 40.18C68.3374 40.6067 67.4521 40.82 66.4708 40.82ZM66.4708 38.676C66.8974 38.676 67.2814 38.548 67.6228 38.292C67.9641 38.036 68.2308 37.7053 68.4228 37.3C68.6361 36.8947 68.7428 36.4573 68.7428 35.988C68.7428 35.476 68.6361 35.0173 68.4228 34.612C68.2308 34.2067 67.9534 33.8867 67.5908 33.652C67.2494 33.396 66.8761 33.268 66.4708 33.268C66.0654 33.268 65.6814 33.396 65.3188 33.652C64.9774 33.8867 64.7001 34.2173 64.4868 34.644C64.2948 35.0493 64.1988 35.4867 64.1988 35.956C64.1988 36.468 64.3054 36.9267 64.5188 37.332C64.7321 37.7373 65.0094 38.068 65.3507 38.324C65.6921 38.5587 66.0654 38.676 66.4708 38.676ZM50.6628 38.996L59.6548 28.468L67.9748 17.524L69.9268 19.252L61.1588 29.62L52.5828 40.724L50.6628 38.996Z" fill="white"/>
</svg>
