<svg width="36" height="37" viewBox="0 0 36 37" fill="none" xmlns="http://www.w3.org/2000/svg">
<g clip-path="url(#clip0_419_119)">
<mask id="mask0_419_119" style="mask-type:luminance" maskUnits="userSpaceOnUse" x="0" y="0" width="36" height="37">
<path d="M0 0.666748H36V36.6667H0V0.666748Z" fill="white"/>
</mask>
<g mask="url(#mask0_419_119)">
<path fill-rule="evenodd" clip-rule="evenodd" d="M36 18.6667C36 28.6072 27.9405 36.6667 18 36.6667C8.0595 36.6667 0 28.6072 0 18.6667C0 8.72625 8.0595 0.666748 18 0.666748C27.9405 0.666748 36 8.72625 36 18.6667ZM9 24.9667H22.5V15.0667C22.5 14.7122 22.4302 14.3611 22.2945 14.0335C22.1588 13.7059 21.9599 13.4083 21.7092 13.1576C21.4585 12.9068 21.1608 12.708 20.8332 12.5723C20.5057 12.4366 20.1546 12.3667 19.8 12.3667H6.3V22.2667C6.3 22.9828 6.58446 23.6696 7.09081 24.1759C7.34153 24.4267 7.63918 24.6255 7.96675 24.7612C8.29433 24.8969 8.64543 24.9667 9 24.9667ZM24.3 21.3667L29.7 24.9667V12.3667L24.3 15.9667V21.3667Z" fill="#407FE7"/>
</g>
</g>
<defs>
<clipPath id="clip0_419_119">
<rect width="36" height="36" fill="white" transform="translate(0 0.666748)"/>
</clipPath>
</defs>
</svg>
