<svg viewBox="184.21621621621625 76.65000000000009 786.7567567567567 1303.0500000000004" xmlns="http://www.w3.org/2000/svg" overflow="visible" xmlns:xlink="http://www.w3.org/1999/xlink" width="786.7567567567567px" height="1303.0500000000004px"><g id="Master/Pose/Bust" stroke="none" stroke-width="1" fill="none" fill-rule="evenodd"><g id="Body" transform="translate(147.000000, 639.000000) scale(1 1)"><g id="Body/Shirt and Coat" stroke="none" stroke-width="1" fill="none" fill-rule="evenodd"><path d="M386.475701,23.649702 L374.241405,53.8956502 L380.982187,149.765818 L385.998303,150.547543 C438.973002,158.758968 474.970296,162.907007 493.990184,162.99166 L494.579029,162.992983 C513.732771,162.992983 536.684265,158.714559 563.433512,150.157712 L564.652002,149.765818 L567.739382,77.9806822 L560.457331,77.9806822 L547.284764,47.0979896 L547.296966,47.0878343 C547.441992,47.3351512 547.592951,47.5751989 547.750114,47.8076447 C553.242114,55.9306447 556.424933,49.3704374 569.327533,52.2435072 C584.775947,55.6834631 591.63339,71.2962803 605.233705,82.9645117 C611.548567,88.3822741 624.801936,90.9357789 631.144329,94.6602938 L637.806553,98.574829 C658.681753,110.887713 682.675374,125.84455 695.273331,145.3288 C710.041331,168.1708 720.221331,189.8478 729.621331,215.2578 C749.883331,270.0268 763.947331,325.9158 773.996331,383.3918 C784.182331,441.6448 790.303331,500.6208 794.978331,559.5508 C797.143869,586.860031 798.980508,614.191415 800.504765,641.542594 L800.879331,648.3808 C801.680331,663.2628 800.984331,677.8248 787.453331,686.9888 C777.758599,693.553443 764.892247,694.553282 753.518224,695.227326 L752.899331,695.2638 C668.805998,700.1958 584.709998,705.090911 500.615183,709.99743 L374.474331,717.3718 C353.485664,718.602467 332.496998,719.822467 311.508035,721.036244 L260.275235,723.99517 C236.128816,725.36932 211.953117,726.558443 187.774331,726.4178 C157.354045,726.240029 127.063043,723.993725 96.9233246,719.939235 L94.2643309,719.5768 C75.3023309,716.9588 47.8083309,710.3348 44.4023309,687.5938 C43.9133309,684.3288 46.7873309,682.2888 49.2003309,682.7578 C48.4063309,679.0568 47.9133309,675.3488 47.4423309,672.1298 C45.4213309,658.3698 44.1523309,644.5218 43.5253309,630.6298 C42.2673309,602.8318 43.3273309,574.9048 46.1063309,547.2288 C50.7037792,501.440524 57.148432,455.731996 63.8076389,410.183114 L65.2903309,400.0638 C72.3733309,351.8058 80.8063309,303.6288 94.0023309,256.6218 C106.192331,213.1978 125.209148,168.023917 151.37596,140.565507 C177.542773,113.107096 214.851015,89.251238 253.186015,74.638238 C256.506015,73.372238 322.465846,58.930892 326.909846,61.033892 L327.707931,60.4083507 C340.858512,50.0264513 359.618404,31.7896024 378.933331,37.5328 L378.977712,37.4604573 C379.433147,36.6227176 381.217379,31.0198774 383.682162,23.649702 L386.475701,23.649702 Z" id="👕-Top" fill="#8FA7DF"/><path d="M400.425752,-16.606103 C416.401752,-36.860103 433.241923,-43.2988944 458.125923,-41.7898944 C475.000923,-42.3928944 491.830923,-38.0128944 506.119923,-28.3368944 C519.211923,-21.4958944 530.821923,-12.0788944 539.108923,0.043105619 C546.196193,10.4071375 540.811555,36.0168647 547.284764,47.0979896 C547.221645,48.3036665 547.189496,49.403271 547.189496,50.396056 C547.189496,59.984881 553.862692,70.6854161 567.209085,82.4976614 L567.739382,82.9645117 L567.739382,152.6441 C545.301128,159.543355 517.520611,162.992983 484.397831,162.992983 C451.76942,162.992983 417.83188,157.51459 382.58521,146.557804 L380.982187,146.055995 L374.241405,70.3267258 L380.982187,49.3704374 L380.981301,31.8182494 L383.585954,23.9673611 C388.198415,10.1638797 395.258883,-10.0548341 400.425752,-16.606103 Z" id="✋-Skin" fill="#ae5d29"/><path d="M380.982187,146.055995 C420.47883,157.557153 453.708711,163.307732 480.671831,163.307732 C507.63495,163.307732 535.628341,157.557153 564.652002,146.055995 L557.589331,713.967698 L443.915331,715.3569 L380.982187,146.055995 Z" id="👕-Top" fill="#9FD8E5"/><path d="M185.955631,394.0248 C185.517631,393.2048 186.533631,392.4678 187.207631,393.0588 C202.520631,406.4968 210.537631,428.0778 212.218631,448.0258 C213.999631,469.1788 211.474631,491.0798 210.509631,512.2238 C209.435631,535.7758 208.470631,559.3368 207.159631,582.8778 C205.828631,606.7618 204.394631,630.6378 203.165631,654.5268 L200.400631,708.2648 L200.400631,708.2648 C200.106631,713.9918 200.743631,721.0348 198.545631,726.3798 C195.139652,734.665735 185.022365,733.38282 182.896114,726.457617 L182.829631,726.2298 L182.635631,726.3798 C180.759631,720.1388 182.163631,712.7268 182.481631,706.2738 L185.378631,647.5608 L185.378631,647.5608 C187.425231,606.0609 189.250701,564.56019 191.449176,523.068147 L192.196631,509.2378 C193.224431,490.6195 194.012471,472.04818 194.645315,453.435631 L194.850631,447.2298 C195.451631,428.5418 194.974631,410.8988 185.955631,394.0248 Z M557.165431,49.5109 C565.696431,48.7009 572.138431,51.5299 579.883431,54.5099 C583.257431,55.8069 586.452431,57.3059 589.689431,58.8579 C593.741795,60.8009303 596.347826,64.2363683 598.843446,67.8686081 L600.177431,69.8259 C610.568431,85.0499 617.558431,102.6139 625.445431,119.1889 C634.671431,138.5779 643.989431,157.9249 653.018431,177.4059 L657.474283,187.003789 C659.701727,191.802956 661.922588,196.605122 664.110491,201.422289 L667.890867,209.806347 C671.688407,218.309181 675.093085,227.304332 669.680431,236.0759 C664.647431,244.2339 655.724431,250.5459 648.659431,256.8519 C642.765431,262.1139 636.870431,267.3749 630.973431,272.6349 C643.162431,284.8409 651.345431,300.2099 656.155431,316.6919 C662.989431,313.8449 671.330431,313.2989 678.396431,312.0669 C688.287431,310.3429 689.499431,325.3169 680.164431,325.1339 C673.270431,324.9989 665.182431,325.7029 658.110431,324.2509 C659.339431,329.6669 660.231431,335.1649 660.798431,340.6779 C663.770018,369.573247 657.276353,398.636279 650.50354,426.593558 L649.946431,428.8889 C642.591431,459.1489 635.617431,489.4879 629.378431,519.9989 C623.125431,550.5749 617.500431,581.2799 612.507431,612.0869 C607.425431,643.4439 603.829431,674.9739 599.964431,706.4969 C599.379431,711.2679 596.377431,715.3569 591.105431,715.3569 C586.713431,715.3569 581.693431,711.2579 582.245431,706.4969 C586.233431,672.1689 591.889431,638.0209 597.508431,603.9279 C607.186739,545.214977 619.3676,487.012818 633.381291,429.192843 L635.829244,419.123796 C642.134066,393.009152 647.853734,366.100926 644.691431,339.1639 C642.115451,317.22946 632.944378,293.842512 614.818445,280.218742 L614.266431,279.8089 C610.032431,276.7039 608.403431,270.7659 612.573431,266.6769 C615.227098,264.074567 617.883875,261.475344 620.542209,258.877752 L636.498431,243.2999 L639.715341,240.153638 C642.397615,237.534716 645.092717,234.931757 647.868431,232.4089 C649.548431,230.8829 654.103431,227.9729 654.436431,225.4629 C654.652777,223.824438 652.713058,220.947072 651.927008,219.438226 L648.325431,212.1689 L648.325431,212.1689 C646.280431,208.0239 644.298431,203.8489 642.301431,199.6799 C638.163431,191.0439 633.965431,182.4339 629.917431,173.7549 L605.596431,121.6429 L605.596431,121.6429 C598.735431,106.9409 592.623431,91.4199 583.653431,77.8279 L581.884819,75.1788877 C580.408514,72.9479432 579.104542,70.8004556 578.171431,68.0719 C577.274431,65.4469 576.148431,62.5649 574.490431,60.3249 C570.605431,55.0679 563.179431,52.0859 556.966431,50.9849 C556.068431,50.8249 556.394431,49.5849 557.165431,49.5109 Z M370.111931,35.8235654 C370.651931,35.8235654 370.733931,36.5946 370.235931,36.7446 C362.739931,38.9986 355.576931,42.6356 349.732931,47.8856 C346.936931,50.3976 344.121931,53.2486 342.395931,56.6306 C341.735331,57.9248 341.369571,59.2919 341.101821,60.709301 L341.015931,61.1836 C340.570668,63.7443368 339.933338,65.1697274 338.632042,67.2198301 L338.408931,67.5676 C330.981931,79.0366 325.776931,91.7756 321.017931,104.5306 L310.654056,132.3421 L310.654056,132.3421 L300.296931,160.1566 C296.959931,169.1186 293.620931,178.0816 290.282931,187.0436 C288.438931,191.9916 286.542931,196.9186 284.647931,201.8466 C283.827931,203.9816 282.945931,206.1006 282.195931,208.2616 C282.092931,208.5566 281.764931,210.3356 281.518931,210.7676 L281.602931,210.9146 L281.602931,210.9146 C283.691931,214.4286 289.262931,217.3646 292.420931,219.9176 L303.294931,228.7086 L303.294931,228.7086 C311.047931,234.9776 318.999931,241.0706 326.519931,247.6196 C331.243931,251.7316 328.304931,259.0956 323.036931,260.8126 C314.208931,263.6886 305.559931,267.1306 296.863931,270.3846 C293.351231,271.6986 289.693541,272.8425 286.221827,274.291608 L284.108455,275.204939 C283.282988,275.576092 283.67984,275.57263 283.712931,277.0956 C283.745931,278.6936 284.198931,280.3586 284.458931,281.9286 C287.387931,299.6386 290.492931,317.3186 293.769931,334.9676 C305.361931,397.3786 319.210931,459.3336 335.005931,520.8126 C342.983931,551.8596 351.539931,582.7536 359.692931,613.7546 C367.825931,644.6726 378.526931,675.1476 388.744931,705.4286 C391.627931,713.967698 378.086931,717.6446 375.274931,709.1416 C363.498931,673.5276 352.725931,637.6026 341.600931,601.7866 C321.834931,538.1466 306.258931,473.1246 292.482931,407.9456 C285.654931,375.6416 279.409931,343.2136 273.753931,310.6836 C272.682931,304.52535 271.632743,298.363163 270.604212,292.197459 L269.105112,283.128265 C268.077479,276.663967 267.492357,269.930403 272.516931,264.8146 C277.423264,259.821386 285.845975,258.051994 292.302119,255.710039 L292.770931,255.5376 C296.878931,254.0046 301.016931,252.5276 305.138931,251.0046 C299.066931,246.2246 293.069931,241.3386 287.012931,236.5616 C282.126931,232.7076 277.163931,228.9316 272.347931,224.9896 C268.376931,221.7376 265.138931,217.5626 264.724931,212.2746 C264.302556,206.869944 266.618655,201.854755 268.486662,196.898104 L268.665931,196.4186 C270.499931,191.4696 272.338931,186.5236 274.224931,181.5936 L285.894931,151.0746 L285.894931,151.0746 C293.310931,131.6816 300.413931,112.1316 308.213931,92.8896 C311.299931,85.2746 314.662931,77.7796 318.636931,70.5816 C320.552931,67.1106 322.607931,63.7136 324.840931,60.4376 C327.342931,56.7636 329.613931,54.9726 333.490931,52.9456 C339.689931,49.7046 344.554931,44.2706 350.779931,40.9296 C356.889931,37.6496 363.175931,35.8996 370.111931,35.8235654 Z M390.236331,1.2251 C390.473331,0.8181 391.101331,0.999074259 391.109331,1.4621 C391.271331,11.1001 388.981331,20.9491 387.572331,30.4791 C386.157331,40.0431 385.703331,50.1381 383.656331,59.6001 C383.613931,60.0409 383.528651,60.4753 383.408171,60.901764 L383.310331,61.2261 L383.310331,61.2261 C382.446331,63.8771 380.199331,66.1241 377.442331,66.8261 C378.309331,71.6301 379.126331,76.4421 379.813331,81.2801 C380.993331,89.5958143 382.07027,97.9237735 383.129424,106.254502 L384.397331,116.2521 C385.594331,125.6741 386.758331,135.1001 387.909331,144.5271 C390.836331,145.7511 393.823331,146.7611 396.882331,147.6361 C403.927331,149.6521 411.143331,150.4721 418.413331,151.1851 C433.218798,152.637367 448.137509,153.309989 462.995474,154.134707 L466.178331,154.3141 C482.882331,155.2711 499.677331,155.4411 516.339331,153.7271 C524.601331,152.8771 532.798331,151.4511 540.855331,149.4301 C544.949331,148.4031 548.928331,146.8691 553.014331,145.8651 C554.369331,145.5321 555.580331,144.7641 556.938331,143.9441 C557.541331,143.1821 558.387331,142.6051 559.489331,142.3821 L559.787831,142.3301 L559.787831,142.3301 L560.083331,142.2871 L560.185331,142.2411 L560.177331,142.2731 C561.013331,142.1601 561.807331,142.1611 562.556331,142.2631 C562.854331,134.9131 563.177331,127.5631 563.582331,120.2151 C564.669331,100.4791 567.670331,79.8911 563.664331,60.3271 C563.530331,59.6691 564.425331,59.4371 564.658331,60.0531 C572.519331,80.7641 571.636331,103.4111 572.032331,125.2091 C572.419331,146.5261 572.185331,167.8581 572.079331,189.1801 C573.606331,189.8301 574.968331,190.7111 576.047331,191.9471 C578.202331,194.4171 578.822331,198.7111 576.047331,201.0951 C574.817331,202.1521 573.456331,202.8861 572.012331,203.3951 C571.935331,221.9181 571.804331,240.4431 571.618331,258.9671 C575.141331,261.6881 575.470331,268.1491 571.485331,270.8341 C570.822331,330.8221 569.732331,390.8121 568.828331,450.7911 L566.934331,576.6291 L566.934331,576.6291 C566.682331,593.3951 566.264331,610.1601 566.114331,626.9241 L566.233331,626.9711 L566.233331,626.9711 L566.652521,627.165439 C567.358374,627.496768 568.408581,628.032663 568.626331,628.5811 C568.683331,628.7251 568.698331,628.8231 568.691331,628.8971 C569.847331,629.0591 570.992331,629.6051 571.983331,630.5451 C574.429331,632.8691 573.932331,636.3721 571.983331,638.7391 L571.462331,639.3721 L571.462331,639.3721 C570.247331,640.8471 567.940331,641.4151 566.056331,641.1151 C566.075331,651.5781 566.142331,662.0431 566.109331,672.5061 C566.098531,675.7017 566.050291,678.89766 565.995067,682.093548 L565.863283,689.756637 C565.775777,694.129447 565.388422,699.686555 560.909331,701.6511 C555.856331,703.8681 551.325331,702.0521 549.279331,696.9201 C548.725331,695.5301 548.844331,694.2351 549.046331,692.8611 C548.983331,690.7961 548.660331,688.4031 548.700331,686.4871 L548.867331,678.4981 L548.867331,678.4981 C548.893331,677.2661 548.943331,676.0351 548.978331,674.8031 L548.832331,674.8181 L548.832331,674.8181 C530.877805,675.689679 512.797627,675.26436 494.813719,675.253737 L486.815463,675.265367 C480.141942,675.271095 473.454141,675.23547 466.790141,674.98039 L464.292331,674.8741 C459.303331,674.6401 454.056331,674.5651 448.884331,674.1191 C449.543331,679.4281 450.159331,684.7411 450.708331,690.0591 C451.228331,695.1021 446.023331,699.3871 441.380331,699.3871 C435.866331,699.3871 432.712331,695.0531 432.052331,690.0591 C428.936331,666.5031 427.661331,642.7271 424.684331,619.1561 C422.017631,598.0439 419.705711,576.88391 417.35564,555.731534 L416.570331,548.6811 C407.970023,471.704792 399.620224,394.699514 391.633408,317.6574 L387.914699,281.642296 C384.15894,245.342424 380.381198,209.0403 377.195331,172.6871 C375.373331,151.9031 373.694331,131.1151 372.114331,110.3111 C370.955331,95.0271 370.227331,79.8281 369.753331,64.5741 C367.884331,62.6511 366.947331,59.8431 367.775331,56.9431 C368.259331,55.2511 368.822331,53.5681 369.416331,51.8881 C369.379331,50.2371 369.340331,48.5871 369.308331,46.9341 C369.278331,45.3701 370.866331,44.5651 372.137331,44.8241 C374.447331,39.2311 376.991331,33.6861 379.114331,28.1471 C382.550331,19.1811 385.382331,9.5201 390.236331,1.2251 Z M198.341231,98.1264 C234.260231,75.6164 277.016231,59.4184 319.839231,61.1624 C320.813231,61.2024 321.087231,62.6864 320.076231,62.9114 C297.234231,68.0114 274.141231,74.2234 252.516231,83.2644 C230.828231,92.3324 210.206231,104.5424 191.839231,119.2154 C157.951231,146.2874 131.611231,181.5004 114.267231,221.1934 C104.108231,244.4454 96.9872309,268.9934 90.7692309,293.5504 C84.1892309,319.5394 78.7662309,345.8084 74.2572309,372.2354 C65.3512309,424.4364 60.1662309,477.2124 57.4072309,530.0794 C54.6002309,583.8574 55.7572309,637.6734 53.7552309,691.4594 C53.4092309,700.7784 40.0892309,700.5964 39.4122309,691.4594 C34.8762309,630.3084 37.3892309,568.1814 41.5842309,507.0734 C45.3562309,452.1394 51.9432309,397.3204 62.5502309,343.2704 L63.4741576,338.58605 C73.3900215,288.579465 85.3503521,237.361188 109.322231,192.0744 C129.788231,153.4114 161.384231,121.2884 198.341231,98.1264 Z M697.130531,337.1236 C697.317531,336.5876 698.025531,336.5946 698.214531,337.1236 C702.309531,348.5857 702.456585,361.519368 703.544877,373.601893 L703.630531,374.5296 C704.674086,385.550044 705.460062,396.583921 706.190728,407.627016 L706.462531,411.7686 C709.395531,456.8186 713.061531,501.8186 718.586531,546.6316 C724.091531,591.2756 731.534531,635.6086 739.583531,679.8536 C740.480531,684.7796 738.298531,689.7976 733.132531,691.2166 C728.578531,692.4676 722.732531,689.6626 721.769531,684.7656 C716.772531,659.3696 712.731531,633.9396 709.126531,608.3236 C702.780531,563.2166 698.044531,517.9016 694.999531,472.4516 C693.471531,449.6246 692.530531,426.8066 692.156531,403.9306 C691.983817,393.317029 692.25947,382.67759 692.82496,372.074735 L692.960531,369.6286 C693.584531,358.7916 693.520531,347.4586 697.130531,337.1236 Z M309.003531,624.0661 C309.483531,623.8061 310.077531,624.3401 309.773531,624.8361 C302.818531,636.1391 293.409531,645.8851 284.315531,655.4911 C274.808531,665.5321 265.536531,675.8761 255.837531,685.7201 C248.829531,692.8311 237.556531,681.3601 244.952531,674.8351 C255.351531,665.6631 266.220531,656.9471 276.804531,647.9791 L281.43318,644.055711 C290.111167,636.724568 299.046561,629.45907 309.003531,624.0661 Z M639.344831,618.4052 C638.825831,617.4162 640.011831,616.6142 640.817831,617.2692 C646.427831,621.8312 651.455831,627.2732 656.872831,632.0872 C662.237831,636.8562 667.802831,641.3042 673.519831,645.6422 C679.260831,649.9982 685.126831,654.1802 691.150831,658.1372 C696.147831,661.4192 701.297831,664.0482 706.530831,666.7732 C708.953831,667.0852 711.197831,668.2742 712.993831,670.5292 C715.833831,674.0952 716.135831,680.8192 712.196831,683.9152 L711.489831,684.4702 L711.489831,684.4702 C706.892831,688.0832 701.435831,688.5232 696.910831,684.4702 C691.858104,679.945655 687.082236,674.966564 682.23011,670.185069 L680.771831,668.7572 C675.557831,663.6892 670.470831,658.4572 665.674831,652.9902 L661.333085,648.051342 C653.278511,638.866307 644.894754,628.966892 639.344831,618.4052 Z M613.502531,88.8713 C612.569531,88.2533 613.144531,86.5893 614.296531,86.9863 L616.409529,87.7165994 C625.237228,90.7841628 634.323716,94.1861519 642.338531,98.9093 C650.951531,103.9843 658.904531,110.0303 666.502531,116.5163 C682.229531,129.9413 695.609531,146.4503 706.980531,163.6573 C729.796531,198.1863 743.906531,237.7303 755.298531,277.2973 C767.445531,319.4853 776.797531,362.5813 784.433531,405.7993 C792.192531,449.7203 798.178531,494.0373 802.112531,538.4663 C804.050531,560.3523 805.351531,582.2513 806.005531,604.2133 C806.342531,615.5113 806.331531,626.8013 806.237531,638.1033 C806.213531,641.0098 806.232781,643.9148 806.265781,646.8198 L806.376531,655.5363 C806.435531,661.0473 807.095531,666.8383 805.785531,672.2223 C803.677531,680.8893 789.347531,679.2723 789.818531,670.4143 C789.386531,667.4673 789.369531,664.4213 789.481531,661.3693 C789.413531,660.9753 789.339531,660.5753 789.257531,660.1663 C789.022531,658.9953 789.222531,657.9113 789.682531,656.9793 C789.756531,655.5153 789.823531,654.0603 789.847531,652.6303 C789.941531,646.8113 789.935531,641.0153 789.774531,635.1983 C789.435531,622.9323 788.947531,610.6663 788.454531,598.4063 C787.469531,573.9063 786.099531,549.3953 784.113531,524.9553 C777.203531,439.8853 762.612531,354.3303 738.103531,272.4873 C726.720531,234.4813 711.027531,197.1723 688.522531,164.3303 C678.532531,149.7503 667.261531,136.2833 654.766531,123.7843 C642.192531,111.2073 628.336531,98.6953 613.502531,88.8713 Z M443.915331,637.2711 L445.613587,649.555836 C446.462491,655.69926 447.303331,661.8447 448.101331,667.9941 C453.522331,667.2521 459.068331,666.9411 464.292331,666.4781 C473.437331,665.6681 482.645331,665.2761 491.817331,664.8971 C510.784331,664.1151 529.846331,662.7581 548.832331,662.8531 C549.027331,662.8541 549.211331,662.8671 549.395331,662.8821 L550.337331,638.6431 L550.337331,638.6431 L536.997331,638.6221 L536.997331,638.6221 C525.695331,638.6041 514.395331,638.5081 503.093331,638.4111 C492.914456,638.3236 482.731753,638.3096 472.5546,638.097782 L468.193331,637.9941 C460.475331,637.7861 451.953331,638.2151 443.915331,637.2711 Z M551.456331,602.0881 C550.912331,602.1521 550.358331,602.2061 549.769331,602.2311 C547.127331,602.3421 544.464331,602.2651 541.820331,602.2871 C536.190331,602.3361 530.561331,602.3741 524.930331,602.3731 C513.670331,602.3721 502.411331,602.4401 491.153331,602.5761 C479.563331,602.7161 467.981331,602.9171 456.390331,602.9401 C450.774331,602.9501 445.176331,602.8011 439.562331,602.6441 C440.470331,610.6221 441.419331,618.5941 442.467331,626.5471 C451.185289,625.369308 460.561742,625.963116 469.081976,625.881744 L470.188331,625.8671 C481.817331,625.6681 493.456331,625.8151 505.088331,625.8291 C517.054331,625.8431 529.019331,625.8821 540.986331,625.9801 L550.817331,626.0611 L550.817331,626.0611 L550.836331,625.5661 L550.836331,625.5661 C551.124331,617.7481 551.310331,609.9201 551.456331,602.0881 Z M435.237331,563.9221 C436.327331,573.3391 437.350331,582.7721 438.393331,592.2021 C439.086331,592.0951 439.788331,592.0031 440.503331,591.9281 C446.127331,591.3401 451.739331,590.8361 457.383331,590.4861 C468.634331,589.7891 479.884331,589.4211 491.153331,589.1191 C502.741331,588.8081 514.331331,588.5701 525.923331,588.4061 C531.555331,588.3271 537.182331,588.3351 542.814331,588.3741 C545.456331,588.3921 548.125331,588.3091 550.762331,588.4861 C551.076331,588.5071 551.377331,588.5401 551.675331,588.5741 L551.873331,574.416026 C551.907442,572.056767 551.942998,569.697767 551.981331,567.3391 C543.276902,567.875814 534.427617,567.670998 525.729716,567.673428 L523.725331,567.6781 C512.796331,567.7281 501.863331,567.5781 490.936331,567.3511 C479.663331,567.1161 468.413331,566.7481 457.160331,566.0261 C452.601188,565.734671 448.075106,565.346263 443.541153,564.846392 L441.273331,564.5871 C439.300331,564.3541 437.268331,564.1661 435.237331,563.9221 Z M552.879331,523.9681 C531.916474,525.63191 511.065181,526.327012 490.046434,526.5337 L486.892331,526.5611 C468.318331,526.7021 449.591331,527.4681 430.973331,526.9761 C432.086331,536.6271 433.196331,546.2781 434.315331,555.9271 C436.981331,555.8031 439.660331,555.8021 442.266331,555.7081 C447.567331,555.5171 452.850331,555.4691 458.154331,555.4571 C469.081331,555.4321 480.008331,555.5271 490.936331,555.5051 C502.198331,555.4811 513.458331,555.2911 524.718331,555.0791 C533.847331,554.9081 543.073331,554.2211 552.227331,554.2461 L552.879331,523.9681 L552.879331,523.9681 Z M553.766331,482.7941 C551.337154,483.600688 548.4695,483.652564 545.325108,483.796772 L537.209979,484.200956 C533.448771,484.3853 529.687131,484.5587 525.923331,484.6961 C513.382331,485.1551 500.841331,485.5841 488.298331,485.9831 C475.445331,486.3911 462.530331,486.6281 449.675331,486.2231 C443.378331,486.0241 437.134331,485.6941 430.856331,485.1691 C429.304331,485.0391 427.722331,484.9541 426.137331,484.8421 C427.598331,497.6291 429.065331,510.4141 430.537331,523.1991 C449.066331,520.9251 467.738331,519.5091 486.244331,517.1571 L502.977675,515.020381 C519.703143,512.886163 536.414831,510.7916 553.201331,509.0261 L553.766331,482.7941 L553.766331,482.7941 Z M554.659331,441.1651 C551.095096,442.0451 547.033033,442.001197 543.61032,442.217254 L542.976331,442.2611 C536.491331,442.7531 529.989331,442.9991 523.489331,443.1591 C510.749331,443.4731 498.001331,443.6301 485.257331,443.7081 L477.593899,443.75574 C467.377771,443.81558 457.167531,443.8415 446.948331,443.6031 C440.393331,443.4511 433.853331,443.1301 427.303331,442.8021 C425.341331,442.7031 423.335331,442.6381 421.323331,442.5371 C422.692331,454.6431 424.075331,466.7461 425.455331,478.8501 C427.607331,478.5081 429.769331,478.2481 431.830331,477.9001 C437.109331,477.0081 442.378331,476.2961 447.695331,475.6591 C459.211331,474.2791 470.787331,473.2861 482.357331,472.4481 C494.235331,471.5871 506.123331,470.8591 518.003331,470.0261 L526.417081,469.432975 C529.221581,469.23835 532.026331,469.0501 534.832331,468.8781 C539.624331,468.5841 545.194331,468.9161 549.947331,467.8731 C551.234331,467.3371 552.663331,467.2141 554.094331,467.5201 L554.659331,441.1651 L554.659331,441.1651 Z M555.738331,392.4381 C554.505331,394.0041 552.663331,394.8251 550.467331,395.1091 C539.02822,396.592822 527.294757,396.831347 515.758916,397.530577 L513.725331,397.6591 C501.814331,398.4441 489.896331,399.0601 477.976331,399.6931 C465.731331,400.3431 453.488331,400.8731 441.233331,401.3001 C436.030581,401.481225 430.8018,401.502334 425.591202,401.43578 L423.359331,401.4021 C421.219331,401.3661 418.978331,401.3711 416.732331,401.2981 C417.975331,412.6181 419.230331,423.9371 420.503331,435.2531 C422.793331,435.0041 425.082331,434.8141 427.303331,434.5791 C433.849331,433.8871 440.387331,433.2031 446.948331,432.6861 C459.380331,431.7061 471.821331,431.1171 484.276331,430.5011 C497.019331,429.8701 509.769331,429.4501 522.514331,428.8551 C528.693331,428.5661 534.870331,428.2071 541.031331,427.6391 C545.349331,427.2421 550.478331,425.7721 554.983331,426.3121 C555.229331,415.0201 555.485331,403.7291 555.738331,392.4381 Z M556.743331,348.7881 C556.548331,349.0901 556.320331,349.3821 556.043331,349.6541 C551.007111,354.62956 544.800163,354.245988 538.1265,354.767958 L537.717331,354.8011 C531.176331,355.3511 524.632331,355.8741 518.084331,356.3461 C504.995331,357.2911 491.880331,357.9521 478.772331,358.5411 C465.357331,359.1441 451.856331,359.5591 438.428331,359.2851 C429.829331,359.1091 420.823331,359.1401 412.052331,358.3021 C413.399331,370.7691 414.754331,383.2351 416.119331,395.7001 C418.585331,395.2351 421.067331,394.8791 423.418331,394.5091 C429.343331,393.5771 435.274331,392.6401 441.233331,391.9541 C453.141331,390.5831 465.052331,389.3011 476.983331,388.1441 C487.186664,387.154933 497.386525,386.150489 507.597382,385.246507 L513.725331,384.7171 C525.908331,383.6921 538.245331,382.0021 550.467331,381.7521 C552.481331,381.7111 554.759331,382.8071 555.913331,384.5371 C556.183331,372.6201 556.463331,360.7041 556.743331,348.7881 Z M557.589331,313.4511 C554.478331,313.8291 551.126331,313.6141 548.255331,313.7081 C540.996331,313.9451 533.736331,314.1651 526.476331,314.3791 L482.915331,315.6651 L482.915331,315.6651 C468.084331,316.1021 453.201331,316.4301 438.364331,316.2201 C431.837531,316.1283 425.282381,316.1175 418.75793,315.762693 L416.584331,315.6311 C413.899331,315.4521 410.604331,315.4271 407.386331,315.1001 L411.185331,350.2871 L411.185331,350.2871 C419.913864,349.026167 428.908958,348.55446 437.563272,347.815032 L439.412331,347.6521 C452.176331,346.4891 465.001331,345.7201 477.788331,344.8541 C490.905331,343.9661 504.003331,342.8881 517.102331,341.7851 C523.649331,341.2351 530.195331,340.6861 536.737331,340.0841 L537.545484,340.00453 C543.725275,339.359249 549.536289,337.986517 555.009331,341.6301 C555.810331,342.1621 556.437331,342.8741 556.866331,343.6711 C557.105331,333.5981 557.339331,323.5241 557.589331,313.4511 Z M558.604331,272.3861 C532.075331,273.4541 505.542331,274.2641 478.993331,274.6201 C464.049331,274.8201 449.124331,274.6791 434.182331,274.3671 C427.70322,274.2311 421.17038,273.921273 414.696185,273.424977 L412.271331,273.2301 C409.193331,272.9711 405.959331,272.7831 402.739331,272.4731 C404.070331,284.5711 405.390331,296.6711 406.700331,308.7731 C409.867688,308.184386 413.178178,307.912978 415.953645,307.557747 L416.584331,307.4741 C423.481331,306.5251 430.443331,305.9721 437.374331,305.3621 C450.870331,304.1731 464.433331,303.4071 477.965331,302.7561 C491.822331,302.0891 505.686331,301.5241 519.545331,300.9081 L533.405553,300.287656 C535.715442,300.185433 538.025331,300.084767 540.335331,299.9871 C543.636331,299.8481 546.936331,299.7151 550.236331,299.5781 C551.864331,299.5111 553.556331,299.2901 555.186331,299.3741 L555.650187,299.31178 C555.864051,299.28454 556.052931,299.2627 556.226331,299.2441 C556.669664,298.9066 557.147025,298.626739 557.652627,298.414355 L557.959331,298.2951 L558.604331,272.3861 Z M398.389331,233.4701 C399.621331,244.3611 400.839331,255.2551 402.041331,266.1501 C405.825331,265.7181 409.654331,265.4791 413.267331,265.1541 C420.552331,264.5011 427.871331,263.9291 435.178331,263.5931 L449.781998,262.914915 C459.516886,262.464767 469.251331,262.029433 478.993331,261.6741 C505.655331,260.7011 532.316331,259.5861 558.962331,258.2251 C559.150331,250.8361 559.344331,243.4471 559.542331,236.0581 C558.263331,237.4281 556.415331,238.3291 553.987331,238.3231 C526.013331,238.2481 498.017331,238.4101 470.046331,237.9501 C456.045331,237.7191 442.060331,237.3801 428.075331,236.6621 C421.232331,236.3111 414.351331,235.5951 407.560331,234.6541 C404.664331,234.2531 401.495331,233.9671 398.389331,233.4701 Z M393.912331,194.6611 C395.227331,205.8171 396.517331,216.9771 397.786331,228.1391 C401.260331,227.5191 404.849331,227.1891 408.090331,226.7481 C415.054331,225.8011 422.061331,225.0471 429.075331,224.6511 C442.723331,223.8791 456.379331,223.4901 470.046331,223.2001 C498.015331,222.6061 526.012331,222.6101 553.987331,222.3891 C556.615331,222.3681 558.566331,223.4081 559.847331,224.9601 C560.041331,217.9931 560.246331,211.0261 560.457331,204.0581 C557.755331,203.7731 555.076331,203.3691 552.597331,203.1961 C544.978331,202.6641 537.356331,202.1781 529.731331,201.7411 C513.819331,200.8281 497.892331,200.0491 481.969331,199.3561 C466.042331,198.6631 450.110331,197.9861 434.178331,197.3961 L427.210534,197.141645 C416.131161,196.72955 404.863766,196.209187 393.912331,194.6611 Z M388.902331,152.6441 C390.271331,163.9431 391.619331,175.2441 392.964331,186.5471 L393.373331,190.0451 L393.373331,190.0451 C406.698331,187.4551 420.741331,186.6961 434.178331,186.1251 C450.113331,185.4471 466.020331,185.0981 481.969331,185.1471 C497.902331,185.1951 513.811331,185.5721 529.731331,186.2301 C537.686331,186.5581 545.640331,186.9381 553.590331,187.3701 C555.776331,187.4881 558.339331,187.4251 560.977331,187.4631 C561.034331,185.6871 561.083331,183.9111 561.144331,182.1361 C561.386331,174.9421 561.623331,167.7481 561.870331,160.5551 C556.493146,163.316878 549.501535,164.430848 544.09763,165.607908 L543.481331,165.7441 C534.558331,167.7481 525.447331,169.0471 516.339331,169.8411 C498.453331,171.4011 480.381331,170.8181 462.512331,169.3071 L459.382185,169.03931 C443.690647,167.678756 427.423206,165.954225 412.211331,162.0711 C404.965331,160.2221 397.474331,157.6341 390.981331,153.8831 C390.306331,153.4931 389.609331,153.0801 388.902331,152.6441 Z M539.989731,18.3683 C540.144731,17.7573 541.059731,17.6183 541.360731,18.1893 C543.473731,22.2033 544.259731,27.0213 545.726731,31.3223 C547.305731,35.9463 548.778731,40.6043 550.520731,45.1723 C554.159731,54.7163 558.452731,63.8873 563.570731,72.7283 C568.639731,81.4823 554.446731,87.7313 550.716731,78.1473 C546.865731,68.2573 543.700731,58.0313 541.785731,47.5803 C540.850731,42.4813 540.017731,37.3123 539.747731,32.1313 C539.514731,27.6813 538.888731,22.7093 539.989731,18.3683 Z" id="🖍-Ink" fill="#000"/></g></g><g id="Head" transform="translate(372.000000, 180.000000) scale(0.9978902953586498 1)"><g id="Head/Bun 2" stroke="none" stroke-width="1" fill="none" fill-rule="evenodd"><path d="M397.5017,243.7566 C395.1257,213.0126 398.8077,180.7886 386.9537,151.5666 C366.2857,103.0816 308.3297,86.9156 263.3987,68.4566 C245.398536,63.1379728 184.830055,62.3945685 163.754,55.3552 C116.053659,39.423363 104.656889,20.4408103 66.7547,50.7756 C60.3567,55.9576 56.3537,61.5896 53.4337,69.2846 L53.5537,69.3176 C52.7197,72.5256 53.6137,75.7266 55.4927,78.1716 C39.0587,94.9696 32.1817,120.1536 40.6137,142.5146 C68.1307,200.7036 66.8367,232.1666 57.9707,294.7226 C46.3927,353.1226 72.8497,374.4556 116.6657,406.2316 C114.8817,409.6906 114.5117,414.2876 116.8377,417.3396 C167.5047,488.5386 263.037604,522.532978 344.890604,486.394978 C378.115604,471.606978 392.9487,436.2236 401.4137,404.2966 C411.2747,368.5476 414.3047,330.8776 406.2767,294.4616 C403.0387,277.6196 398.8207,260.8996 397.5017,243.7566 Z" id="✋-Skin" fill="#ae5d29"/><path d="M34.604,156.542779 L64.7308389,176.612571 L172.569953,62.925405 L136.683492,34.6802511 C93.2789544,66.7591122 67.3095712,87.0317357 58.7753427,95.4981214 C50.2411142,103.964507 42.184,124.312726 34.604,156.542779 Z" id="bandana" fill="#9FD8E5"/><path d="M105.244,-96.8628 C111.394175,-97.7863088 116.038608,-93.970587 118.247976,-88.5923941 L118.364,-88.3028 C119.074,-86.4728 119.864,-84.6928 120.714,-82.9428 C136.104,-90.4928 158.064,-88.5528 167.804,-73.2628 C174.754,-62.3428 170.514,-49.3828 167.894,-37.8028 L166.174,-30.1728 C169.49875,-28.05705 172.005962,-24.2682 171.888262,-20.3448366 L171.874,-20.0428 L171.174,-9.4028 C173.394,-11.6528 175.424,-14.1028 177.234,-16.7128 C178.484,-19.0028 179.834,-21.2528 181.284,-23.4328 C189.814,-36.2628 208.964,-25.1128 201.924,-11.3728 C200.574,-8.7228 199.054,-6.2128 197.424,-3.7928 C195.584,-0.2228 194.074,3.4472 192.914,7.2172 C196.244,8.6672 198.804,11.8872 199.074,16.7472 C199.704,28.0972 193.744,37.5672 184.264,43.5172 C181.474,45.2672 178.594,45.6072 175.984,44.9572 C175.524,45.5772 175.064,46.1972 174.624,46.8272 C178.404,49.8972 181.814,53.3972 184.744,57.2772 C193.564,55.9572 202.434,55.3372 211.304,55.3172 C222.144,50.0072 235.124,50.1172 246.774,52.1072 C254.274,53.3872 261.474,55.8772 268.854,57.6672 C276.634,59.5472 284.534,59.6172 292.404,60.8972 C302.324,62.5072 311.024,67.0872 316.494,74.3972 C322.504,74.5772 328.824,77.0372 334.064,80.3772 C346.264,88.1572 358.394,96.0472 370.564,103.8772 C375.234625,106.883242 376.98101,111.682178 376.122343,117.034803 L376.064,117.3772 L375.654,119.5972 L376.616833,120.963599 C380.341184,126.22304 384.3936,131.732 386.804,137.5372 C391.264,143.9672 395.294,150.7072 398.864,157.6572 C403.674,166.9972 407.644,176.8972 410.334,187.0572 C411.004,189.6272 411.674,192.2172 412.114,194.8372 C412.744,198.5372 411.774,201.4072 411.244,204.9572 C410.584,209.4572 410.344,214.0172 409.644,218.5272 C409.174,221.5172 406.634,222.9872 403.974,223.0672 C404.974,230.6772 405.694,238.3372 406.384,245.9372 C407.354,256.7972 408.014,267.6872 408.584,278.5772 C411.524,282.8472 417.534,286.2272 421.874,287.3972 C427.884,289.0072 434.184,287.2572 439.864,285.2072 C443.434,283.9172 446.364,288.4072 444.624,291.4072 C439.154,300.8272 427.454,300.7872 418.594,296.6172 C414.844,294.8572 411.554,292.3072 409.114,288.9872 C409.264,292.1472 409.424,295.3072 409.584,298.4772 L409.733019,301.348481 C411.534571,334.880433 415.424,369.565811 409.124,402.7672 C398.214,460.2772 350.621536,504.066686 292.484,507.4672 C261.975969,509.251641 236.570564,500.240629 223.937282,495.213915 C211.304,490.1872 216.214126,479.938033 224.9842,482.867831 C240.09212,487.9149 267.846269,495.434144 292.684,492.1872 C351.224,484.534485 400.864,455.275433 395.764,329.2572 C395.040771,311.386598 392.814,293.5072 392.334,275.6372 C391.874,258.1672 392.044,240.6872 391.274,223.2272 L391.017237,217.269998 C390.716593,210.309175 390.395111,203.316089 389.874,196.3472 C389.244,193.6472 388.724,190.9072 387.954,188.2572 C385.864,181.0472 383.134,174.0372 379.744,167.3472 C378.994,167.9172 378.154,168.3272 377.244,168.4872 C370.334,169.7272 363.854,169.3772 357.384,166.4972 C354.364,165.1672 351.704,163.3972 349.224,161.2072 C348.044,160.1772 347.254,159.1772 346.634,158.1372 C343.504,158.1872 340.374,157.2472 338.414,154.9972 C336.178516,152.432684 335.806716,149.783881 336.682306,147.331747 L336.774,147.0872 L336.554,147.0072 C333.914,153.8372 328.654,159.8472 322.884,163.9072 C313.764,170.3472 302.354,172.2072 291.414,172.3772 C279.334,172.5572 266.594,170.6972 254.674,168.7972 C251.524,168.2972 248.394,167.7272 245.324,166.9572 C245.204,167.0772 245.084,167.2172 244.954,167.3372 C234.724,177.1272 220.334,179.6472 207.354,174.0572 C199.854,170.8272 193.564,165.6272 188.004,159.6672 C187.924,162.7872 187.764,165.9072 187.494,168.9972 L187.38219,170.224228 C186.828578,175.979244 185.763333,182.083867 181.414,186.2372 C174.384,192.9672 164.184,190.2672 156.074,185.8872 C156.084,186.0972 156.084,186.3172 156.084,186.5372 C158.274,193.9772 160.474,201.4272 162.674,208.8772 L163.147862,210.46421 C164.747636,215.754142 166.502182,221.050836 166.984,226.5872 C167.904,237.1672 160.864,247.6172 149.104,244.0672 C142.935429,242.211771 137.993633,237.025176 133.251896,232.870958 L130.264,230.2872 C137.994,255.5572 143.354,281.7272 143.854,308.0972 C143.884,309.5272 142.654,310.6072 141.294,310.6572 C138.114,310.7872 134.694,310.1572 131.494,308.8872 C131.314,308.8772 131.134,308.8672 130.944,308.8372 C125.484,308.0472 120.414,306.0772 115.944,303.1672 C116.974,306.4372 117.434,309.9472 117.164,313.6172 C117.094,314.5072 115.704,314.8172 115.504,313.8372 C112.924,301.1472 98.074,291.5572 85.274,293.9872 C71.534,296.5972 61.414,308.4172 58.934,321.8672 C56.274,336.3172 61.364,353.0272 70.794,364.1772 C75.134,369.3172 80.844,373.6072 87.624,374.6872 C90.724,375.1772 93.944,375.0072 96.954,374.1272 C98.234,373.7472 99.434,373.2172 100.654,372.7172 C102.434,371.9972 104.514,371.8872 106.194,371.1272 C110.004,369.4172 113.834,372.9272 111.904,376.8372 C110.224,380.2472 108.714,382.5472 105.924,384.3072 C108.184,387.0672 110.234,390.9072 110.994,391.9372 C114.874,397.1772 118.814,402.1272 123.234,406.9172 C127.734,411.7772 132.644,416.2172 137.834,420.3272 L140.015504,422.05095 C145.014625,426.015794 149.36775,429.6897 152.894,435.3772 C155.674,439.8672 152.074,445.9572 146.864,445.8872 C130.564,445.6572 118.714,431.3372 110.274,418.8272 C109.074,417.0372 107.944,415.1472 106.894,413.2072 C106.514,413.8172 106.094,414.3872 105.624,414.9072 L106.554,417.4072 C109.314,424.7672 97.424,429.5772 93.974,422.7072 C91.464,417.7272 88.554,412.9872 85.314,408.5072 C83.404,408.2372 81.534,407.0772 80.494,405.5772 C77.864,401.7672 74.914,397.9172 72.424,393.8572 C71.044,392.5472 69.624,391.2872 68.174,390.0572 C67.754,390.4272 67.324,390.7972 66.914,391.1872 C65.094,395.3372 62.844,399.1272 60.054,402.6972 L59.4558229,403.45882 C54.110919,410.195002 47.1489091,417.089382 38.534,418.7372 C35.904,419.2372 33.374,415.9672 35.704,413.8772 C41.734,408.4572 48.864,404.7672 54.424,398.7172 C57.1632857,395.736486 59.6783878,392.453986 61.8412012,389.013818 L62.334,388.2172 C62.694,387.6272 63.064,387.0372 63.444,386.4372 C60.934,384.7272 58.424,383.0072 55.914,381.2872 C49.0043226,387.190426 40.0061956,389.890738 32.3636123,394.780705 L31.604,395.2772 C24.694,399.8972 17.414,389.6772 22.954,384.0672 C29.061,377.9062 34.159,370.5592 39.569,363.7112 C37.025,359.0252 35.821,353.4842 35.37,347.8842 C35.192,346.2992 35.053,344.7132 34.914,343.1272 C31.034,343.1872 27.134,341.8572 23.834,339.5672 L22.584,338.6772 C18.574,339.9572 14.364,340.5772 10.334,340.4672 C0.854,340.1872 -3.026,329.3572 2.904,322.5072 C8.954,315.5072 19.544,313.9772 27.934,317.3772 C28.204,317.2372 28.484,317.0872 28.754,316.9372 C28.354,315.0972 28.443,313.4282 28.898,311.9622 L28.766,311.0682 C26.921,308.2372 25.708,305.0052 25.248,301.5902 C24.884,298.8852 24.958,296.2042 25.584,293.5332 C25.792,292.6442 26.225,291.7232 26.556,290.7962 C25.874,289.0742 25.473,287.2942 25.349,285.5042 C25.158,285.2772 24.968,285.0442 24.788,284.7922 C20.625,278.9472 21.466,271.9042 25.428,267.1742 C25.446,266.8732 25.474,266.5722 25.515,266.2732 C25.283,265.7512 25.07,265.2242 24.876,264.6912 C21.005,260.7862 18.163,256.0872 18.693,250.2642 C19.004,246.8382 20.412,243.7542 22.543,241.4492 C22.165,240.3312 22.129,239.0362 22.587,237.9552 C19.186,228.9092 19.616,218.0142 22.064,207.8972 C21.524,206.3572 21.244,204.6872 21.304,202.9172 C21.584,195.4072 28.084,188.5072 35.784,188.5972 C36.711,188.6052 37.579,188.7262 38.413,188.9032 L38.424,188.7242 C38.719,186.4702 39.339,184.3872 40.244,182.5182 C39.799,182.3572 39.387,182.1262 39.026,181.8192 C34.092,184.4512 28.871,186.4632 23.397,187.8342 C19.372,188.8422 15.249,184.2672 17.751,180.4892 C18.912,178.7362 20.193,177.1622 21.573,175.7242 C19.611,175.7352 17.619,175.8682 15.604,176.1272 C11.984,176.5972 7.944,174.1272 5.594,170.7872 C2.674,173.6272 -0.256,176.4572 -3.186,179.2872 C-10.606,186.4772 -21.816,181.1872 -22.986,171.7072 C-25.196,171.1172 -27.256,170.1172 -29.066,168.6872 C-40.766,173.7672 -53.356,176.5572 -66.226,177.0872 C-75.466,177.4672 -80.866,166.7072 -76.546,159.1072 C-73.646,154.0072 -70.046,149.4272 -65.896,145.4472 C-72.336,147.4172 -78.986,148.8372 -85.776,149.7472 C-89.446,150.2372 -94.636,147.1972 -96.106,143.8272 C-101.726,130.8672 -101.246,117.3572 -94.776,104.7472 C-94.526,104.2472 -94.246,103.7672 -93.976,103.2872 C-93.306,101.6172 -92.576,99.9672 -91.786,98.3472 C-99.746,90.0472 -100.436,77.7072 -96.146,67.3772 C-97.866,64.5872 -98.526,61.2272 -97.356,58.1872 C-94.026,49.4372 -89.226,41.3572 -83.166,34.4172 C-83.746,33.2972 -84.256,32.1072 -84.686,30.8272 C-88.096,20.4772 -84.146,7.9872 -76.176,0.7772 C-71.166,-3.7628 -65.406,-6.4828 -59.256,-8.2228 C-56.666,-12.8028 -53.336,-16.9328 -49.456,-20.4128 C-49.306,-20.7428 -49.156,-21.0728 -48.986,-21.4028 C-42.946,-32.7828 -31.946,-38.8828 -20.156,-40.2928 C-19.696,-44.7428 -16.696,-48.9928 -12.336,-50.3728 C-11.136,-54.2228 -9.346,-57.9028 -6.886,-61.2428 C-3.016,-66.5028 3.414,-68.9828 9.474,-65.5328 C12.794,-63.6428 15.974,-61.4728 18.954,-59.0728 C20.2924615,-59.7004923 21.809858,-60.1066462 23.5219199,-60.2362046 L23.954,-60.2628 L33.814,-60.7628 C37.944,-62.5928 42.064,-64.5128 46.194,-66.3828 C48.674,-68.4328 51.444,-70.1428 54.464,-71.4128 C57.884,-72.8428 61.384,-73.6528 64.894,-73.9228 C67.744,-74.8528 70.614,-75.6728 73.534,-76.3128 C80.394,-77.8128 87.574,-78.6528 94.694,-78.5828 C94.8397143,-80.4256571 94.9119592,-82.2905551 94.8981399,-84.1774939 L94.884,-85.1228 C94.724,-91.1728 99.554,-96.0028 105.244,-96.8628 Z M98.334,387.1872 C97.354,387.3972 96.364,387.5672 95.374,387.6872 C95.674,388.4272 95.974,389.1672 96.264,389.9072 C97.064,390.3572 97.874,390.7872 98.684,391.1872 C98.444,389.8272 98.304,388.4572 98.334,387.1872 Z M46.957,371.9202 L46.2921852,373.144348 C46.1844444,373.344644 46.0783333,373.542533 45.974,373.7372 C47.384,373.6272 48.804,373.6572 50.204,373.8172 L50.2,373.6682 C50.02,373.6072 49.84,373.5512 49.668,373.4672 C48.702,373.0032 47.804,372.4832 46.957,371.9202 Z M74.724,316.0673 C83.5712222,316.582578 91.0667855,317.939098 99.1129371,321.809367 L99.804,322.1473 C106.914,325.6773 118.674,332.1973 117.684,341.5473 C117.404,344.2073 115.474,347.0073 112.434,346.7973 C104.104,346.2273 99.344,337.8273 93.704,332.5873 C88.014,327.3073 81.024,321.8773 74.134,318.2473 C73.1600714,317.736229 73.5437194,316.118639 74.6034989,316.066514 L74.724,316.0673 Z M34.604,192.8772 C32.484,192.9472 33.194,195.0072 34.284,193.2872 C34.374,193.1472 34.484,193.0072 34.604,192.8772 Z M149.04,55.3552 C128.962,55.8832 108.755,67.7382 93.714,79.7212 C80.629,90.1462 69.33,102.5462 59.325,115.9112 C56.751,122.5672 54.541,129.3622 52.674,136.2072 C51.444,140.7272 50.674,145.2972 49.644,149.8572 L49.324,151.2552 C48.515,152.7672 47.914,154.3942 47.476,156.0752 C49.299,157.9032 51.664,159.2122 54.268,159.8332 C55.107,160.0332 55.804,160.4662 56.355,161.0402 C58.451,157.5422 60.283,153.8502 61.349,149.9362 L61.388,149.7552 C65.417,143.1562 69.793,136.7622 74.484,130.5872 C87.424,113.5372 101.674,97.9972 118.804,85.0672 C131.794,75.2672 146.314,67.5872 161.754,62.5972 C157.975,59.5482 153.683,57.1362 149.04,55.3552 Z" id="🖍-Ink" fill="#000"/></g></g><g id="Face" transform="translate(531.000000, 366.000000) scale(1 1)" fill="#000"><g id="Face/Smile Big" stroke="none" stroke-width="1" fill="none" fill-rule="evenodd"><path d="M79.1996019,197.798966 C90.1214942,191.222404 130.944848,196.042976 163.01327,197.798966 C188.478595,199.193385 206.667356,196.429949 212.488767,200.348155 C225.641067,209.200546 219.252652,252.006116 196.589222,257.86012 C173.925792,263.714125 89.9129827,271.890526 75.4275085,257.86012 C60.9420343,243.829714 59.6047058,209.597931 79.1996019,197.798966 Z" id="teeth" fill="#FFF"/><path d="M93.3467129,186.476493 C110.488788,184.396013 127.104995,189.644043 143.862898,192.289481 C152.710839,193.685435 161.569756,194.727668 170.523469,195.115267 C172.32459,195.193982 174.126708,195.239817 175.928826,195.276684 C176.096465,193.690417 176.984552,192.233683 178.908408,191.360838 C182.851913,189.573299 186.008114,188.767213 190.337788,188.93959 C194.301251,189.096024 198.278683,189.503551 202.181276,190.217969 C209.268011,191.517272 216.386677,194.465615 221.570511,199.588099 C233.567668,211.441255 231.741602,230.480436 222.47157,243.39077 C203.319435,270.068282 168.364112,271.306425 138.426282,270.958393 L135.66356,270.922255 C108.404278,270.532663 69.4042864,274.596972 57.019963,243.583075 C52.465773,232.178299 53.0984103,218.959081 58.6743992,208.020619 C65.3250733,194.973778 79.3249167,188.178341 93.3467129,186.476493 Z M178.495298,230.894938 L178.250824,230.904902 C165.682896,231.389151 153.116964,231.72992 140.542051,231.952117 C140.918241,235.181444 141.302413,238.411767 141.741468,241.63412 C142.085726,244.169954 142.454931,246.702799 142.839103,249.232654 C143.001753,250.303783 143.598468,251.966772 143.429831,253.027936 L143.368962,253.44742 L143.368962,253.44742 C144.014571,253.739364 144.600309,254.209664 145.03637,254.892197 C145.188043,255.128344 145.297807,255.366483 145.407571,255.603626 C155.170541,255.680348 165.676909,255.491033 175.629471,253.716447 L175.649428,253.500229 L175.649428,253.500229 C175.830039,252.228824 176.358899,251.372918 177.061386,250.786039 C177.76088,246.731694 177.697017,242.411311 177.967435,238.38885 C178.136071,235.889883 178.318678,233.392909 178.495298,230.894938 Z M130.93774,232.123497 C121.87903,232.277607 112.816379,232.396289 103.759597,232.285698 L99.6481393,232.22214 L99.6481393,232.22214 C100.516269,236.880303 101.461234,241.522523 102.246542,246.211574 C103.065777,251.098909 98.7640436,254.205679 95.0410632,254.080133 C95.4591626,254.148884 95.8762641,254.219628 96.2943635,254.278416 C107.926308,255.92347 120.004291,255.487047 131.808863,255.474094 C131.173731,251.767293 131.431054,247.584788 131.336033,244.49078 L131.317921,244.011527 C131.13731,240.046857 131.010583,236.085177 130.93774,232.123497 Z M69.4062821,231.268587 C69.720605,233.690832 70.3322874,236.061264 71.2473164,238.268286 C75.1139873,247.592582 83.9788918,251.943854 93.3586871,253.776231 C91.7311928,253.214262 90.4389764,251.864142 90.1126792,249.551502 C89.299431,243.801286 89.0070608,237.955417 88.9851081,232.116522 C82.448189,232.055742 75.8673645,231.916246 69.4062821,231.268587 Z M212.584867,229.277783 C207.930891,230.375814 202.522541,229.872633 197.956377,230.079884 C193.678592,230.274182 189.398811,230.443569 185.121025,230.616943 C185.322591,233.537386 185.519168,236.456834 185.732708,239.375285 C186.008114,243.147649 186.034059,247.134239 186.756502,250.890661 C195.365957,247.952282 203.08034,243.240314 208.867873,235.705549 C210.309767,233.828335 211.600986,231.625298 212.584867,229.277783 Z M91.3799494,201.775194 C83.6326376,203.609563 76.3004317,207.484557 72.3599198,214.573932 C70.020958,218.780726 68.9921741,223.766703 69.1897485,228.679944 C75.7376439,227.917699 82.3982965,227.628744 89.0270178,227.389608 C89.0489705,226.195923 89.0771321,225.003566 89.1129808,223.813719 L89.2151053,220.764114 C89.3957906,214.947692 89.4865796,207.643706 91.3799494,201.775194 Z M131.479572,202.48463 L128.069104,202.101567 C118.596243,201.022247 109.128468,199.889225 99.6551242,200.538664 C98.2840775,200.633321 96.892076,200.782781 95.4970809,200.987043 C97.1714741,207.029203 97.0307772,214.125552 97.7302705,220.106932 C98.000688,222.419573 98.3419529,224.713282 98.7201382,226.998024 L100.363598,226.921301 L100.363598,226.921301 C110.528702,226.370293 120.703784,226.031517 130.876871,225.627976 C130.876122,223.71788 130.8866,221.806663 130.917143,219.894746 L130.954703,217.982611 C131.070454,213.099262 130.755133,207.598146 131.479572,202.48463 Z M179.049105,201.709432 C169.127476,203.310644 158.873564,203.651412 149.127558,203.663369 C145.234942,203.668351 141.344323,203.429215 137.455699,203.084462 C137.709153,205.154977 137.84087,207.249407 138.031459,209.291027 C138.415432,213.416914 138.854327,217.536423 139.331283,221.652107 L139.756743,225.25333 L139.756743,225.25333 C152.260808,224.686379 164.763876,224.073594 177.264948,223.438888 L179.029148,223.344231 L179.029148,223.344231 L179.523638,216.423284 C179.860246,211.808262 180.23056,207.194273 180.753433,202.600212 L180.361278,202.458723 L180.361278,202.458723 C179.900271,202.269408 179.463213,202.008351 179.049105,201.709432 Z M183.357823,203.427223 C183.904645,209.952636 184.206994,216.504952 184.609128,223.041325 L192.850339,222.601065 C194.223751,222.526187 195.597126,222.449797 196.970501,222.370749 C202.310997,222.062862 209.173215,220.445708 214.452843,221.954255 C214.855974,217.154604 213.48393,212.478506 209.152261,209.254161 C201.547641,203.590632 191.864499,205.607342 183.357823,203.427223 Z M155.2009,145.0937 C167.4729,138.0657 198.2639,130.8827 200.2139,152.9677 C201.11069,163.130663 193.55511,171.551452 184.732334,175.308984 L184.4009,175.4477 C176.1259,178.8497 161.4589,182.6917 154.2979,175.3147 C148.3379,169.1747 156.2429,158.1657 163.6489,163.1957 C167.454921,165.779721 175.466095,163.875752 179.713009,162.646215 L179.9789,162.5687 C184.5619,161.2217 190.6719,156.9107 188.7769,151.2677 C187.0999,146.2757 179.9639,145.3637 175.4949,145.2017 C168.8239,144.9627 162.3319,146.5117 155.7219,147.0157 C154.6749,147.0957 154.3519,145.5797 155.2009,145.0937 Z M206.0359,109.581 C222.6919,108.801 233.0529,126.987 229.2229,141.888 C228.5609,144.459 225.6849,146.983 222.9089,146.694 L222.209444,146.629632 C221.8541,146.59548 221.4971,146.5506 221.1689,146.46 C218.5329,145.73 216.1699,142.988 216.3619,140.146 L216.412906,139.317884 C216.801522,132.278753 216.038672,124.168709 207.6729,122.464 C200.5779,121.018 196.6169,127.847 196.5329,134.133 C196.5169,135.249 195.2629,136.028 194.2759,135.428 C189.1469,132.307 188.2589,126.098 190.2179,120.751 C192.7009,113.976 198.9149,109.914 206.0359,109.581 Z M82.4329,113.4814 C94.5539,109.4374 107.6309,115.8984 113.4999,126.6144 C115.5589,127.2104 117.6149,128.7974 117.3289,131.2274 C116.9159,134.7234 116.2939,136.9274 113.8699,139.5784 C110.078488,143.725503 102.977604,141.605092 101.401739,136.499971 L101.3349,136.2694 C99.5449,129.6704 92.2809,125.3164 85.6639,127.6264 C77.9339,130.3244 78.1579,138.4884 72.7359,143.2444 C72.0989,143.8034 71.3349,143.8924 70.5709,143.5234 C64.8119,140.7404 65.8469,132.3644 67.8999,127.5704 C70.5929,121.2794 75.8269,115.6844 82.4329,113.4814 Z M65.9254,76.6741 C75.7474,66.6521 101.3594,56.9541 108.0784,75.4611 C109.3584,78.9861 106.6334,83.7391 102.9634,84.4701 C96.9534,85.6661 91.6214,83.0571 85.6514,83.5251 C80.8184,83.9061 75.7774,85.5211 71.9134,88.5151 C61.2114,96.8071 58.8574,110.8321 51.4004,121.3861 C51.0374,121.9001 50.3324,121.6841 50.2654,121.0781 C48.5674,105.7131 55.1674,87.6501 65.9254,76.6741 Z M194.0206,66.8082 C200.5386,64.5062 207.9196,64.7032 214.4716,66.7452 C221.0716,68.8032 227.1306,72.7112 231.7986,77.8172 C233.9166,80.1352 235.8766,82.6932 237.4486,85.4162 C238.2836,86.8592 239.1616,89.8402 240.1106,91.6152 C245.245093,94.5796058 247.439689,101.334701 242.842821,106.140464 L242.6356,106.3512 L242.0206,106.9612 C239.5496,109.4072 235.8236,110.4672 232.4506,109.4902 C224.9026,107.3062 223.9856,101.3612 221.3726,95.0512 C219.6466,90.8832 216.6896,87.1952 213.1046,84.4862 C204.6316,78.0862 190.7386,76.0472 180.5376,79.0632 C179.9946,79.2242 179.3566,78.5322 179.7436,78.0302 C181.6766,75.5262 182.7906,73.4712 185.3786,71.4512 C188.0056,69.4012 190.8726,67.9202 194.0206,66.8082 Z" id="🖍-Ink" fill="#000"/></g></g><g id="Facial Hair" transform="translate(494.999934, 517.999659) scale(1 1)" fill="#000"><g id="Facial Hair/None" stroke="none" stroke-width="1" fill="none" fill-rule="evenodd" fill-opacity="0"/></g><g id="Mask" transform="translate(400.000000, 480.000000) scale(1 1)" fill="#000"><g id="Mask/None" stroke="none" stroke-width="1" fill="none" fill-rule="evenodd" fill-opacity="0"/></g><g id="Accessories" transform="translate(419.000000, 421.000000) scale(1 1)" fill="#000"><g id="Accessories/Glasses 4" stroke="none" stroke-width="1" fill="none" fill-rule="evenodd"><path d="M370.267229,94.0812186 C361.087518,105.550169 325.150885,118.280642 306.024457,104.460924 C286.89803,90.6412047 279.339478,81.010236 276.782894,63.7418278 C276.51029,61.9005247 273.181038,60.6757933 271.773574,61.9830996 C263.892542,69.3032997 258.790943,78.6267129 253.736631,87.9739798 C248.036181,98.5161913 242.421537,109.123108 232.062291,116.259689 C213.713905,126.095013 180.520036,127.495741 170.713277,123.157318 C151.927276,114.846558 137.066708,97.0725316 133.687387,72.6128057 C131.395829,65.3796109 129.246349,61.0020129 127.238947,59.4800116 C124.384546,57.3158209 108.631937,55.3878277 106.906249,55.0676312 C75.8071363,49.2972786 36.4749058,45.6190335 8.77600719,65.9200219 C5.02749548,68.1858834 -7.80539205,76.6985178 -7.99790561,74.60536 C-8.12928599,66.4063563 1.16220359,47.8487707 22.2939084,39.0185659 C48.4257396,28.098982 87.2707875,27.4603638 109.774665,29.8701917 C110.906452,29.9913891 114.764588,29.0433611 115.037186,28.9253388 C149.130646,14.1644408 188.359486,18.0847288 224.839489,24.2887991 C230.066858,25.3031978 276.863504,36.8905006 295.477887,29.8701917 C326.25407,17.3061158 359.067147,8.2038606 392.30185,11.7849229 C392.579752,11.8148671 396.775316,37.2812197 393.50699,39.0185659 C390.906064,40.4011413 386.480238,43.9439017 384.907987,45.8827637 C383.502453,47.6160336 382.61672,49.7708648 382.69528,52.7561081 C383.327324,70.0252897 378.399915,83.920401 370.267229,94.0812186 Z M243.72836,78.6720803 C247.630761,73.0270335 248.862219,60.3460528 247.228404,51.0948644 C246.401153,46.4106974 244.794863,42.6821957 242.779067,40.8261969 C241.439156,39.5925037 239.910346,39.0117383 238.243089,39.0979354 C237.328973,39.1451951 236.338477,39.4051824 235.290511,39.9705735 C221.097217,32.2929564 203.902812,29.5286089 187.604096,30.323616 C174.629301,30.3211866 165.372072,33.3837093 159.0944,38.1509351 C151.540713,43.8871592 148.137536,52.1332968 147.940635,61.0762046 C147.706992,71.6878578 152.06617,83.2970102 159.216953,92.4828862 C166.061287,101.275098 175.424043,107.793236 185.581316,109.297105 C197.111926,111.586016 208.862264,109.37159 219.07862,103.95477 C229.556845,98.3991036 238.407944,89.4765185 243.72836,78.6720803 Z M357.507438,84.6585403 C364.084035,76.8869454 368.457047,66.7766474 369.122697,56.7593194 C369.728486,47.6428312 367.287306,38.6124814 360.537606,31.1497224 C354.418516,25.8975011 343.605727,25.8104772 332.231167,28.7352865 C317.523167,32.5172431 302.307464,40.969058 297.23517,46.4275624 C296.040378,47.0540173 294.931407,48.1449237 293.965307,50.4849258 L293.958397,51.3191347 C292.421839,58.4056844 293.333557,65.5970212 295.991544,72.2310611 C298.878802,79.4373326 303.830659,85.9791775 309.868491,90.9705601 C317.890232,97.5784779 326.26399,99.6013328 334.1016,98.5342588 C342.979407,97.325564 351.234778,92.0709712 357.507438,84.6585403 Z" id="🎨-Background" fill="#FFF"/><path d="M294.4196,27.0634 C325.5846,14.3394 358.8976,5.1684 392.6236,8.8024 C395.4126,7.7414 398.8746,8.6354 400.1106,12.5794 C412.1236,49.1744 385.3346,38.9974 385.6946,52.6774 C388.5026,129.3804 285.4076,142.4794 273.8156,64.1814 L273.6026,64.3074 L273.6026,64.3074 C256.9246,79.8704 253.4116,105.1954 233.7646,118.7304 C194.1316,147.7154 137.9496,124.7504 130.7336,73.1504 L130.576211,72.452332 C128.153961,61.9216159 125.257898,59.3105277 113.3116,59.3624 L111.424306,58.9874342 C80.385228,52.872048 39.05216,47.3766 10.4636,68.4074 C4.2456,72.0234 3.9536,81.3194 -1.3004,85.3584 C-7.0564,86.4764 -10.6024,79.5534 -10.9924,74.7624 C-11.9044,26.9994 73.5656,23.5634 111.8436,27.6624 C112.5746,26.9054 114.1356,26.9994 114.6616,27.9424 C149.2796,12.9544 188.2806,15.0284 225.3466,21.3314 C248.3076,25.7764 270.9856,35.9014 294.4196,27.0634 Z M389.5206,17.6204 C370.8196,16.6854 353.5216,17.7084 335.1656,22.2034 C325.4916,24.5374 318.0676,27.4884 308.8076,31.0374 C251.0496,56.6264 244.3876,11.1414 114.9196,28.9714 C116.5946,36.1454 116.9026,43.2484 116.9926,49.9884 C143.42758,48.92316 137.203668,74.1647841 147.107497,91.894471 L147.4126,92.4294 C161.8466,118.2974 195.9066,130.3634 223.3816,113.2054 C246.3036,99.8454 248.5396,65.9604 271.3616,52.5124 C291.1446,51.7344 283.2426,78.4344 294.0086,89.4084 C309.1626,109.6294 341.3736,112.4564 360.3756,93.4364 C369.2906,84.2844 374.0286,72.6644 374.2906,60.1804 C374.7876,52.2044 373.4196,44.0994 379.4496,38.4894 C383.6766,34.1954 391.1866,35.6284 392.0486,29.1374 C392.5966,25.2994 391.0006,21.1364 389.5206,17.6204 Z M186.28,28.0747 C204.857,27.1597 224.513,30.3857 240.464,39.4967 C252.271,30.1007 255.164,67.4427 247.327,78.2437 C236.036,101.3457 209.749,116.5347 184.438,111.4907 C144.952,105.7687 117.44,28.0057 186.28,28.0747 Z M239.33,42.0007 L238.319634,41.8530365 C221.207242,39.24197 174.61224,27.14534 156.641,46.2377 C139.2,77.9067 183.447,131.1007 229.492,88.7307 C242.307,75.6837 247.274,59.8627 239.33,42.0007 Z M293.5595,46.0482 C302.4215,35.5552 347.5865,14.3012 363.3295,27.9402 C392.0625,60.1412 346.4955,125.2742 308.3295,93.5412 C295.6175,82.9342 287.2545,66.0342 290.9145,49.6692 L290.92013,48.9832 C290.928056,48.7345333 290.9745,48.7912 291.2405,48.4812 C291.7115,47.2442 292.5595,46.4542 293.5595,46.0482 Z M362.9285,65.5652 C372.6185,13.0082 332.1195,32.9882 298.8595,47.0162 C300.6445,48.6472 300.6365,50.8742 300.1235,52.7042 C296.6155,91.7002 344.0125,113.7982 362.9285,65.5652 Z M111.1716,30.2164 C97.2986,34.9144 5.5376,26.5124 -2.9394,69.5264 C6.0086,55.0294 24.5406,49.2764 41.2006,46.1544 C63.8616,41.9074 86.3986,44.3664 108.7416,48.8354 L109.203057,44.2113617 C109.698597,39.3065938 110.221071,34.7182235 111.1716,30.2164 Z" id="🖍-Ink" fill="#000"/></g></g></g></svg>